<svg width="13" height="11" viewBox="0 0 13 11" fill="none" xmlns="http://www.w3.org/2000/svg">
<path d="M7.82768 10.1875C7.76653 10.1878 7.70592 10.176 7.64931 10.1527C7.5927 10.1293 7.54121 10.095 7.49779 10.0515C7.45424 10.0079 7.41967 9.95611 7.39609 9.89898C7.3725 9.84186 7.36035 9.78059 7.36035 9.71871C7.36035 9.65683 7.3725 9.59556 7.39609 9.53844C7.41967 9.48132 7.45424 9.42948 7.49779 9.3859L11.3543 5.49996L7.49779 1.61403C7.4103 1.52576 7.36114 1.40604 7.36114 1.28121C7.36114 1.15639 7.4103 1.03667 7.49779 0.948402C7.58528 0.860135 7.70395 0.810547 7.82768 0.810547C7.95142 0.810547 8.07008 0.860135 8.15758 0.948402L12.3393 5.16715C12.3829 5.21073 12.4174 5.26257 12.441 5.31969C12.4646 5.37682 12.4768 5.43808 12.4768 5.49996C12.4768 5.56184 12.4646 5.62311 12.441 5.68023C12.4174 5.73736 12.3829 5.7892 12.3393 5.83278L8.15758 10.0515C8.11416 10.095 8.06267 10.1293 8.00606 10.1527C7.94945 10.176 7.88883 10.1878 7.82768 10.1875Z" fill="#00A99D"/>
<path d="M12.0095 5.96875H0.858193C0.734963 5.96875 0.616781 5.91936 0.529644 5.83146C0.442507 5.74355 0.393555 5.62432 0.393555 5.5C0.393555 5.37568 0.442507 5.25645 0.529644 5.16854C0.616781 5.08064 0.734963 5.03125 0.858193 5.03125H12.0095C12.1327 5.03125 12.2509 5.08064 12.3381 5.16854C12.4252 5.25645 12.4741 5.37568 12.4741 5.5C12.4741 5.62432 12.4252 5.74355 12.3381 5.83146C12.2509 5.91936 12.1327 5.96875 12.0095 5.96875Z" fill="#00A99D"/>
</svg>
