<svg width="13" height="11" viewBox="0 0 13 11" fill="none" xmlns="http://www.w3.org/2000/svg">
<path d="M7.90604 10.1875C7.84435 10.1878 7.78319 10.176 7.72608 10.1527C7.66897 10.1293 7.61703 10.095 7.57323 10.0515C7.52929 10.0079 7.49442 9.95611 7.47062 9.89898C7.44682 9.84186 7.43457 9.78059 7.43457 9.71871C7.43457 9.65683 7.44682 9.59556 7.47062 9.53844C7.49442 9.48132 7.52929 9.42948 7.57323 9.3859L11.4639 5.49996L7.57323 1.61403C7.48496 1.52576 7.43537 1.40604 7.43537 1.28121C7.43537 1.15639 7.48496 1.03667 7.57323 0.948402C7.66149 0.860135 7.78121 0.810547 7.90604 0.810547C8.03087 0.810547 8.15058 0.860135 8.23885 0.948402L12.4576 5.16715C12.5015 5.21073 12.5364 5.26257 12.5602 5.31969C12.584 5.37682 12.5963 5.43808 12.5963 5.49996C12.5963 5.56184 12.584 5.62311 12.5602 5.68023C12.5364 5.73736 12.5015 5.7892 12.4576 5.83278L8.23885 10.0515C8.19505 10.095 8.14311 10.1293 8.08599 10.1527C8.02888 10.176 7.96773 10.1878 7.90604 10.1875Z" fill="white"/>
<path d="M12.125 5.96875H0.875C0.75068 5.96875 0.631451 5.91936 0.543544 5.83146C0.455636 5.74355 0.40625 5.62432 0.40625 5.5C0.40625 5.37568 0.455636 5.25645 0.543544 5.16854C0.631451 5.08064 0.75068 5.03125 0.875 5.03125H12.125C12.2493 5.03125 12.3685 5.08064 12.4565 5.16854C12.5444 5.25645 12.5938 5.37568 12.5938 5.5C12.5938 5.62432 12.5444 5.74355 12.4565 5.83146C12.3685 5.91936 12.2493 5.96875 12.125 5.96875Z" fill="white"/>
</svg>
