<svg width="16" height="16" viewBox="0 0 16 16" fill="none" xmlns="http://www.w3.org/2000/svg">
<path fill-rule="evenodd" clip-rule="evenodd" d="M4.9987 0.833496C5.36689 0.833496 5.66536 1.13197 5.66536 1.50016V1.8335L10.332 1.83351V1.50016C10.332 1.13197 10.6305 0.833496 10.9987 0.833496C11.3669 0.833496 11.6654 1.13197 11.6654 1.50016V1.83352L12.4987 1.83352C13.9715 1.83352 15.1654 3.02743 15.1654 4.50018V12.5002C15.1654 13.9729 13.9715 15.1668 12.4987 15.1668L3.4987 15.1668C2.02594 15.1668 0.832031 13.9729 0.832031 12.5002L0.832032 6.00029L0.832032 4.50017C0.832032 3.02741 2.02594 1.8335 3.4987 1.8335L4.33203 1.8335V1.50016C4.33203 1.13197 4.63051 0.833496 4.9987 0.833496ZM4.33203 3.16683L3.4987 3.16683C2.76232 3.16683 2.16537 3.76379 2.16536 4.50017V5.3335H13.832V4.50018C13.832 3.76381 13.2351 3.16685 12.4987 3.16685L11.6654 3.16685V3.50016C11.6654 3.86835 11.3669 4.16683 10.9987 4.16683C10.6305 4.16683 10.332 3.86835 10.332 3.50016V3.16685L5.66536 3.16684V3.50016C5.66536 3.86835 5.36689 4.16683 4.9987 4.16683C4.63051 4.16683 4.33203 3.86835 4.33203 3.50016V3.16683ZM13.832 6.66683H2.16536L2.16536 12.5002C2.16536 13.2365 2.76232 13.8335 3.4987 13.8335L12.4987 13.8335C13.2351 13.8335 13.832 13.2365 13.832 12.5002V6.66683Z" fill="#787A80"/>
</svg>
