<svg width="15" height="13" viewBox="0 0 15 13" fill="none" xmlns="http://www.w3.org/2000/svg">
<path fill-rule="evenodd" clip-rule="evenodd" d="M4.16666 0C4.53485 0 4.83333 0.26789 4.83333 0.598349V0.89753L9.5 0.897539V0.598349C9.5 0.26789 9.79847 1.42658e-07 10.1667 0C10.5349 -1.42657e-07 10.8333 0.26789 10.8333 0.598349V0.897541L11.6667 0.897543C13.1394 0.897546 14.3333 1.9691 14.3333 3.29094V10.4711C14.3333 11.7929 13.1394 12.8645 11.6667 12.8645L2.66667 12.8645C1.19391 12.8645 -7.94728e-08 11.7929 0 10.4711L2.78155e-07 4.63732L3.57628e-07 3.29092C3.97364e-07 1.96908 1.19391 0.897524 2.66667 0.897527L3.5 0.897528V0.598349C3.5 0.26789 3.79847 0 4.16666 0ZM3.5 2.09423L2.66667 2.09422C1.93029 2.09422 1.33333 2.63 1.33333 3.29092V4.03885H13V3.29094C13 2.63002 12.403 2.09424 11.6667 2.09424L10.8333 2.09424V2.3934C10.8333 2.72385 10.5349 2.99174 10.1667 2.99174C9.79848 2.99174 9.5 2.72385 9.5 2.3934V2.09424L4.83333 2.09423V2.3934C4.83333 2.72385 4.53485 2.99174 4.16666 2.99174C3.79847 2.99174 3.5 2.72385 3.5 2.3934V2.09423ZM13 5.23555H1.33333L1.33333 10.4711C1.33333 11.132 1.93029 11.6678 2.66667 11.6678L11.6667 11.6678C12.403 11.6678 13 11.132 13 10.4711V5.23555Z" fill="white"/>
</svg>
