<svg width="19" height="19" viewBox="0 0 19 19" fill="none" xmlns="http://www.w3.org/2000/svg">
<path d="M9.86523 0.822266C4.86812 0.822266 0.8125 4.87789 0.8125 9.875C0.8125 14.8721 4.86812 18.9277 9.86523 18.9277C14.8623 18.9277 18.918 14.8721 18.918 9.875C18.918 4.87789 14.8623 0.822266 9.86523 0.822266ZM7.41194 13.7586L4.16201 10.5087C4.0782 10.4249 4.01172 10.3254 3.96636 10.2159C3.921 10.1064 3.89765 9.989 3.89765 9.87047C3.89765 9.75194 3.921 9.63458 3.96636 9.52507C4.01172 9.41557 4.0782 9.31607 4.16201 9.23225C4.24582 9.14844 4.34532 9.08196 4.45483 9.0366C4.56433 8.99124 4.6817 8.9679 4.80023 8.9679C4.91876 8.9679 5.03612 8.99124 5.14563 9.0366C5.25514 9.08196 5.35463 9.14844 5.43845 9.23225L8.05469 11.8394L14.283 5.61116C14.4522 5.4419 14.6818 5.3468 14.9212 5.3468C15.1606 5.3468 15.3901 5.4419 15.5594 5.61116C15.7287 5.78043 15.8238 6.01 15.8238 6.24938C15.8238 6.48876 15.7287 6.71833 15.5594 6.8876L8.68838 13.7586C8.60463 13.8425 8.50515 13.9091 8.39563 13.9546C8.28612 14 8.16872 14.0234 8.05016 14.0234C7.9316 14.0234 7.8142 14 7.70469 13.9546C7.59517 13.9091 7.49569 13.8425 7.41194 13.7586Z" fill="#00A99D"/>
</svg>
