<svg width="56" height="42" viewBox="0 0 56 42" fill="none" xmlns="http://www.w3.org/2000/svg">
<path fill-rule="evenodd" clip-rule="evenodd" d="M50.5544 15.8438C38.096 3.38536 17.9004 3.38536 5.44201 15.8438C4.89506 16.372 4.16252 16.6643 3.40214 16.6577C2.64177 16.6511 1.91442 16.3461 1.37673 15.8084C0.839051 15.2707 0.534061 14.5434 0.527453 13.783C0.520846 13.0227 0.81315 12.2901 1.34141 11.7432C16.0618 -2.98014 39.9346 -2.98014 54.655 11.7432C55.1833 12.2901 55.4756 13.0227 55.469 13.783C55.4624 14.5434 55.1574 15.2707 54.6197 15.8084C54.082 16.3461 53.3546 16.6511 52.5943 16.6577C51.8339 16.6643 51.1014 16.372 50.5544 15.8438ZM42.3532 24.045C40.4682 22.1597 38.2302 20.6642 35.7672 19.6439C33.3041 18.6236 30.6642 18.0985 27.9982 18.0985C25.3322 18.0985 22.6923 18.6236 20.2293 19.6439C17.7662 20.6642 15.5283 22.1597 13.6432 24.045C13.0963 24.5732 12.3637 24.8655 11.6033 24.8589C10.843 24.8523 10.1156 24.5473 9.57793 24.0096C9.04025 23.4719 8.73526 22.7446 8.72865 21.9842C8.72205 21.2239 9.01435 20.4913 9.54261 19.9444C11.9662 17.5207 14.8435 15.5982 18.0101 14.2865C21.1767 12.9748 24.5707 12.2997 27.9982 12.2997C31.4257 12.2997 34.8197 12.9748 37.9863 14.2865C41.1529 15.5982 44.0302 17.5207 46.4538 19.9444C46.9821 20.4913 47.2744 21.2239 47.2678 21.9842C47.2612 22.7446 46.9562 23.4719 46.4185 24.0096C45.8808 24.5473 45.1534 24.8523 44.3931 24.8589C43.6327 24.8655 42.9002 24.5732 42.3532 24.045ZM34.1462 32.252C32.5147 30.621 30.3022 29.7047 27.9953 29.7047C25.6884 29.7047 23.4759 30.621 21.8444 32.252C21.3003 32.7961 20.5622 33.1018 19.7927 33.1018C19.0231 33.1018 18.2851 32.7961 17.7409 32.252C17.1968 31.7078 16.891 30.9698 16.891 30.2002C16.891 29.4307 17.1968 28.6926 17.7409 28.1485C19.0874 26.8016 20.686 25.7332 22.4455 25.0043C24.205 24.2753 26.0908 23.9002 27.9953 23.9002C29.8998 23.9002 31.7856 24.2753 33.5451 25.0043C35.3046 25.7332 36.9032 26.8016 38.2497 28.1485C38.7939 28.6926 39.0996 29.4307 39.0996 30.2002C39.0996 30.9698 38.7939 31.7078 38.2497 32.252C37.7056 32.7961 36.9675 33.1018 36.198 33.1018C35.4284 33.1018 34.6904 32.7961 34.1462 32.252ZM25.0982 38.4C25.0982 37.6308 25.4037 36.8932 25.9476 36.3493C26.4915 35.8055 27.2291 35.5 27.9982 35.5H28.0272C28.7963 35.5 29.534 35.8055 30.0778 36.3493C30.6217 36.8932 30.9272 37.6308 30.9272 38.4C30.9272 39.1691 30.6217 39.9067 30.0778 40.4506C29.534 40.9944 28.7963 41.3 28.0272 41.3H27.9982C27.2291 41.3 26.4915 40.9944 25.9476 40.4506C25.4037 39.9067 25.0982 39.1691 25.0982 38.4Z" fill="#00A99D"/>
</svg>
