<svg width="48" height="50" viewBox="0 0 48 50" fill="none" xmlns="http://www.w3.org/2000/svg">
<path d="M29.3704 4.59069C29.4446 4.49692 29.5365 4.41875 29.641 4.36067C29.7455 4.30258 29.8604 4.26574 29.9792 4.25227C30.0979 4.23879 30.2182 4.24894 30.333 4.28214C30.4479 4.31533 30.555 4.37092 30.6482 4.44569L32.6057 6.01532L25.4482 15.1249H30.0592L35.4387 8.28094L39.9772 11.9168C40.0723 11.993 40.1511 12.0875 40.2088 12.1948C40.2665 12.302 40.302 12.4199 40.3132 12.5412C40.3244 12.6625 40.311 12.7848 40.2738 12.9008C40.2366 13.0168 40.1764 13.1242 40.0968 13.2164L38.4511 15.1249H43.1889C43.813 14.182 44.0619 13.0398 43.8868 11.9227C43.7118 10.8056 43.1254 9.79435 42.2428 9.0875L32.9139 1.61638C32.4478 1.24325 31.9127 0.965897 31.3391 0.800245C30.7656 0.634593 30.1649 0.583913 29.5717 0.651115C28.9785 0.718318 28.4045 0.902078 27.8825 1.19184C27.3605 1.4816 26.901 1.87165 26.5303 2.33957L16.4038 15.1249H21.0275L29.3704 4.59069ZM33.0625 31.4374C32.5818 31.4374 32.1208 31.6284 31.7809 31.9683C31.441 32.3082 31.25 32.7692 31.25 33.2499C31.25 33.7306 31.441 34.1917 31.7809 34.5316C32.1208 34.8715 32.5818 35.0624 33.0625 35.0624H38.5C38.9807 35.0624 39.4417 34.8715 39.7816 34.5316C40.1215 34.1917 40.3125 33.7306 40.3125 33.2499C40.3125 32.7692 40.1215 32.3082 39.7816 31.9683C39.4417 31.6284 38.9807 31.4374 38.5 31.4374H33.0625ZM5.875 9.68744C4.43289 9.68744 3.04984 10.2603 2.03011 11.28C1.01038 12.2998 0.4375 13.6828 0.4375 15.1249V41.4062C0.4375 43.5694 1.29682 45.6439 2.82641 47.1735C4.356 48.7031 6.43058 49.5624 8.59375 49.5624H39.4062C41.5694 49.5624 43.644 48.7031 45.1736 47.1735C46.7032 45.6439 47.5625 43.5694 47.5625 41.4062V25.0937C47.5625 22.9305 46.7032 20.8559 45.1736 19.3264C43.644 17.7968 41.5694 16.9374 39.4062 16.9374H5.875C5.3943 16.9374 4.93328 16.7465 4.59337 16.4066C4.25346 16.0667 4.0625 15.6056 4.0625 15.1249C4.0625 14.6442 4.25346 14.1832 4.59337 13.8433C4.93328 13.5034 5.3943 13.3124 5.875 13.3124H14.1762L17.069 9.68744H5.875ZM4.0625 41.4062V20.2543C4.62981 20.4537 5.24062 20.5624 5.875 20.5624H39.4062C40.608 20.5624 41.7606 21.0398 42.6103 21.8896C43.4601 22.7394 43.9375 23.8919 43.9375 25.0937V41.4062C43.9375 42.608 43.4601 43.7605 42.6103 44.6103C41.7606 45.46 40.608 45.9374 39.4062 45.9374H8.59375C7.39199 45.9374 6.23945 45.46 5.38967 44.6103C4.5399 43.7605 4.0625 42.608 4.0625 41.4062Z" fill="#00A99D"/>
</svg>
