<svg width="49" height="49" viewBox="0 0 49 49" fill="none" xmlns="http://www.w3.org/2000/svg">
<path d="M24.4969 0.745361C27.3564 0.745361 30.0972 1.25124 32.6361 2.17511L29.7979 5.01086C25.5028 3.84293 20.9421 4.12693 16.825 5.81871C12.7079 7.51048 9.26523 10.5152 7.03222 14.3657C4.79922 18.2162 3.90106 22.6966 4.47741 27.1102C5.05376 31.5238 7.07232 35.6234 10.2192 38.7713C13.3661 41.9192 17.4649 43.9392 21.8784 44.517C26.2918 45.0948 30.7725 44.1982 34.6237 41.9664C38.475 39.7347 41.4808 36.293 43.174 32.1765C44.8672 28.06 45.1527 23.4994 43.9862 19.2039L46.8219 16.3681C47.7704 18.9743 48.2543 21.7267 48.2517 24.5001C48.2517 37.6196 37.6164 48.2549 24.4969 48.2549C11.3774 48.2549 0.742188 37.6196 0.742188 24.5001C0.742188 11.3806 11.3774 0.745361 24.4969 0.745361ZM24.4969 10.2501C25.7003 10.2496 26.8989 10.4012 28.0642 10.7014V14.423C25.7788 13.6145 23.2865 13.6069 20.9963 14.4015C18.7061 15.1962 16.754 16.7458 15.4606 18.796C14.1671 20.8463 13.6091 23.2754 13.8781 25.6845C14.1471 28.0937 15.2272 30.3399 16.941 32.0543C18.6549 33.7688 20.9006 34.8497 23.3097 35.1196C25.7188 35.3895 28.1481 34.8323 30.1988 33.5396C32.2495 32.2469 33.7999 30.2955 34.5953 28.0055C35.3908 25.7156 35.3841 23.2233 34.5764 20.9376H38.2981C39.041 23.8152 38.8657 26.8531 37.7967 29.6261C36.7276 32.3991 34.8183 34.7684 32.336 36.4026C29.8536 38.0367 26.9225 38.8538 23.9527 38.7396C20.983 38.6253 18.1233 37.5854 15.7738 35.7654C13.4243 33.9454 11.7027 31.4363 10.8499 28.5893C9.99705 25.7424 10.0557 22.7 11.0176 19.888C11.9794 17.0761 13.7964 14.6352 16.2143 12.907C18.6321 11.1788 21.5297 10.2499 24.5017 10.2501H24.4969ZM29.2469 24.5001C29.2466 25.521 28.9174 26.5147 28.308 27.3338C27.6986 28.1529 26.8416 28.7539 25.8638 29.0477C24.8861 29.3414 23.8397 29.3124 22.8798 28.9648C21.9199 28.6172 21.0975 27.9696 20.5345 27.118C19.9715 26.2663 19.6979 25.256 19.7542 24.2366C19.8105 23.2172 20.1937 22.2431 20.8471 21.4587C21.5005 20.6742 22.3892 20.1211 23.3816 19.8814C24.3739 19.6417 25.4171 19.728 26.3566 20.1277L30.4416 16.0427L30.4392 8.46886C30.4396 7.9966 30.6275 7.54384 30.9617 7.21011L36.8992 1.27261C37.1483 1.02381 37.4655 0.854419 37.8109 0.785819C38.1562 0.717218 38.5141 0.75249 38.8394 0.88718C39.1647 1.02187 39.4427 1.24993 39.6385 1.54257C39.8342 1.83521 39.9389 2.17929 39.9392 2.53136V9.06261H46.4704C46.8225 9.06292 47.1666 9.16756 47.4592 9.36331C47.7519 9.55905 47.9799 9.83713 48.1146 10.1624C48.2493 10.4877 48.2846 10.8456 48.216 11.1909C48.1474 11.5363 47.978 11.8535 47.7292 12.1026L41.7917 18.0401C41.458 18.3743 41.0052 18.5622 40.5329 18.5626H32.9567L28.8717 22.6476C29.1139 23.2176 29.2469 23.8422 29.2469 24.5001ZM39.7943 15.0001L42.1693 12.6251H38.1556C37.6831 12.6251 37.2301 12.4374 36.896 12.1034C36.562 11.7693 36.3743 11.3163 36.3743 10.8439V6.83011L34.0017 9.20511V14.86C34.0512 14.9046 34.098 14.9522 34.1418 15.0025H39.7943V15.0001Z" fill="#00A99D"/>
</svg>
