<svg width="16" height="16" viewBox="0 0 16 16" fill="none" xmlns="http://www.w3.org/2000/svg">
<path fill-rule="evenodd" clip-rule="evenodd" d="M7.47378 0.217967C7.7644 -0.0726557 8.2356 -0.0726557 8.52622 0.217967L11.8751 3.5668C12.1657 3.85743 12.1657 4.32862 11.8751 4.61924C11.5844 4.90986 11.1132 4.90986 10.8226 4.61924L8.74419 2.54081V11.907C8.74419 12.318 8.411 12.6512 8 12.6512C7.589 12.6512 7.25581 12.318 7.25581 11.907V2.54081L5.17738 4.61924C4.88676 4.90986 4.41557 4.90986 4.12494 4.61924C3.83432 4.32862 3.83432 3.85743 4.12494 3.5668L7.47378 0.217967ZM0.744186 9.48837C1.15519 9.48837 1.48837 9.82156 1.48837 10.2326V13.0233C1.48837 13.8453 2.15474 14.5116 2.97674 14.5116H13.0233C13.8453 14.5116 14.5116 13.8453 14.5116 13.0233V10.2326C14.5116 9.82156 14.8448 9.48837 15.2558 9.48837C15.6668 9.48837 16 9.82156 16 10.2326V13.0233C16 14.6673 14.6673 16 13.0233 16H2.97674C1.33273 16 0 14.6673 0 13.0233V10.2326C0 9.82156 0.333183 9.48837 0.744186 9.48837Z" fill="#00A99D"/>
</svg>
