<svg width="48" height="51" viewBox="0 0 48 51" fill="none" xmlns="http://www.w3.org/2000/svg">
<path d="M25.7188 17.0752C25.7188 16.6442 25.541 16.2309 25.2245 15.9261C24.908 15.6214 24.4788 15.4502 24.0312 15.4502C23.5837 15.4502 23.1545 15.6214 22.838 15.9261C22.5215 16.2309 22.3438 16.6442 22.3438 17.0752V26.5002H12.2188C11.7712 26.5002 11.342 26.6714 11.0255 26.9761C10.709 27.2809 10.5312 27.6942 10.5312 28.1252C10.5312 28.5562 10.709 28.9695 11.0255 29.2742C11.342 29.579 11.7712 29.7502 12.2188 29.7502H24.0312C24.4788 29.7502 24.908 29.579 25.2245 29.2742C25.541 28.9695 25.7188 28.5562 25.7188 28.1252V17.0752Z" fill="#00A99D"/>
<path d="M18.9717 2.125C18.9717 1.69402 19.1494 1.2807 19.4659 0.975951C19.7824 0.671205 20.2116 0.5 20.6592 0.5H27.4092C27.8567 0.5 28.2859 0.671205 28.6024 0.975951C28.9189 1.2807 29.0967 1.69402 29.0967 2.125C29.0967 2.55598 28.9189 2.9693 28.6024 3.27405C28.2859 3.5788 27.8567 3.75 27.4092 3.75V5.6025C31.9992 6.2395 36.1639 8.1375 39.5052 10.9325C39.5185 10.9183 39.532 10.9042 39.5457 10.8903L40.7404 9.73975L39.5457 8.5925C39.2288 8.2878 39.0506 7.87437 39.0503 7.44315C39.05 7.01193 39.2276 6.59826 39.544 6.29313C39.8604 5.98799 40.2897 5.8164 40.7375 5.8161C41.1853 5.81579 41.6149 5.9868 41.9318 6.2915L46.704 10.8903C46.8652 11.0402 46.9938 11.2195 47.0822 11.4177C47.1706 11.616 47.2172 11.8292 47.2191 12.045C47.2211 12.2607 47.1784 12.4747 47.0935 12.6744C47.0087 12.8741 46.8834 13.0556 46.7249 13.2081C46.5665 13.3607 46.3781 13.4814 46.1707 13.5631C45.9633 13.6448 45.7411 13.6859 45.517 13.684C45.293 13.6822 45.0715 13.6373 44.8657 13.5522C44.6598 13.467 44.4736 13.3432 44.3179 13.188L43.1265 12.0375L41.9318 13.188C41.9174 13.2012 41.9028 13.2142 41.8879 13.227C45.3243 17.0469 47.3419 21.8599 47.6225 26.9066C47.9031 31.9532 46.4306 36.9461 43.4374 41.0975C40.4443 45.2489 36.1008 48.3223 31.0925 49.8329C26.0841 51.3434 20.696 51.205 15.7784 49.4396C10.8608 47.6741 6.69366 44.3821 3.93454 40.083C1.17541 35.7839 -0.0185963 30.7225 0.540926 25.6974C1.10045 20.6723 3.38164 15.9697 7.02454 12.3316C10.6674 8.69355 15.4646 6.32712 20.6592 5.60575V3.75C20.2116 3.75 19.7824 3.5788 19.4659 3.27405C19.1494 2.9693 18.9717 2.55598 18.9717 2.125ZM24.0342 8.625C21.3749 8.62521 18.7417 9.12981 16.2849 10.11C13.8282 11.0901 11.596 12.5267 9.71574 14.3376C5.91845 17.9948 3.7854 22.9549 3.78585 28.1266C3.78629 33.2983 5.9202 38.2581 9.71813 41.9147C13.5161 45.5714 18.6669 47.6254 24.0375 47.625C29.4082 47.6246 34.5587 45.5697 38.3559 41.9124C42.1532 38.2552 44.2863 33.2951 44.2858 28.1234C44.2854 22.9517 42.1515 17.9919 38.3536 14.3353C34.5556 10.6786 29.4048 8.62457 24.0342 8.625Z" fill="#00A99D"/>
</svg>
