<svg width="20" height="20" viewBox="0 0 20 20" fill="none" xmlns="http://www.w3.org/2000/svg">
<path d="M14.6373 0.837311L12.3229 0.833496C9.72281 0.833496 8.04249 2.6044 8.04249 5.34535V7.42562H5.71548C5.5144 7.42562 5.35156 7.59308 5.35156 7.79964V10.8137C5.35156 11.0203 5.51458 11.1875 5.71548 11.1875H8.04249V18.793C8.04249 18.9996 8.20532 19.1668 8.4064 19.1668H11.4425C11.6436 19.1668 11.8064 18.9994 11.8064 18.793V11.1875H14.5272C14.7283 11.1875 14.8911 11.0203 14.8911 10.8137L14.8923 7.79964C14.8923 7.70046 14.8538 7.60548 14.7857 7.53529C14.7175 7.4651 14.6247 7.42562 14.5282 7.42562H11.8064V5.66215C11.8064 4.81456 12.003 4.38428 13.0779 4.38428L14.637 4.3837C14.8379 4.3837 15.0007 4.21624 15.0007 4.00988V1.21114C15.0007 1.00496 14.838 0.837692 14.6373 0.837311Z" fill="#00A99D"/>
</svg>
