<svg width="44" height="42" viewBox="0 0 44 42" fill="none" xmlns="http://www.w3.org/2000/svg">
<path d="M4.66545 28.1667H39.3321V4.33333H4.66545V28.1667ZM24.1655 32.5V36.8333H32.8321V41.1667H11.1655V36.8333H19.8321V32.5H2.48145C2.19694 32.4983 1.91556 32.4405 1.65343 32.3298C1.39131 32.2192 1.1536 32.0579 0.953934 31.8552C0.754264 31.6525 0.596558 31.4124 0.489854 31.1486C0.383151 30.8849 0.329549 30.6027 0.33212 30.3182V2.18183C0.33212 0.977167 1.31795 0 2.48145 0H41.5161C42.7035 0 43.6655 0.972833 43.6655 2.18183V30.3182C43.6655 31.5228 42.6796 32.5 41.5161 32.5H24.1655Z" fill="#00A99D"/>
</svg>
