<svg width="15" height="15" viewBox="0 0 15 15" fill="none" xmlns="http://www.w3.org/2000/svg">
<path d="M3.37708 4.78247H0.296875V14.3489H3.37708V4.78247Z" fill="white"/>
<path d="M11.2246 4.59092C10.0365 4.4951 8.94048 5.16299 8.34345 6.12264V4.78256H5.36426V14.349H8.44296V9.5665C8.44296 8.32225 8.73998 7.07799 10.3306 7.07799C11.9212 7.07799 11.9197 8.50816 11.9197 9.66088V14.349H14.9999L14.9004 9.18321C14.9004 6.60032 14.4028 4.59092 11.2246 4.59092Z" fill="white"/>
<path d="M1.78809 3.44385C2.77562 3.44385 3.57617 2.67292 3.57617 1.72192C3.57617 0.770932 2.77562 0 1.78809 0C0.800553 0 0 0.770932 0 1.72192C0 2.67292 0.800553 3.44385 1.78809 3.44385Z" fill="white"/>
</svg>
