<svg width="21" height="20" viewBox="0 0 21 20" fill="none" xmlns="http://www.w3.org/2000/svg">
<path fill-rule="evenodd" clip-rule="evenodd" d="M10.5 0C13.3514 0 13.7097 0.0110095 14.8291 0.0605508C15.7002 0.0764242 16.5622 0.233406 17.378 0.524771C18.0752 0.782203 18.7084 1.17526 19.2372 1.67885C19.766 2.18245 20.1787 2.78551 20.449 3.44954C20.7543 4.22478 20.9191 5.04376 20.9364 5.87156C20.9884 6.93761 21 7.2789 21 9.9945C21 12.7101 20.9884 13.0514 20.9364 14.1174C20.9198 14.9471 20.7549 15.768 20.449 16.545C20.1787 17.209 19.766 17.812 19.2372 18.3156C18.7084 18.8192 18.0752 19.2123 17.378 19.4697C16.5643 19.7624 15.7044 19.9212 14.8349 19.9394C13.7155 19.989 13.3572 20 10.5058 20C7.6544 20 7.29605 19.989 6.1767 19.9394C5.30556 19.9236 4.44361 19.7666 3.6278 19.4752C2.93056 19.2178 2.29735 18.8247 1.76858 18.3211C1.2398 17.8176 0.827096 17.2145 0.556792 16.5505C0.249529 15.7756 0.0827459 14.9566 0.0635754 14.1284C0.011557 13.0624 0 12.7211 0 10.0055C0 7.28991 0.011557 6.94862 0.0635754 5.88257C0.0802425 5.05291 0.245073 4.23202 0.551006 3.45505C0.820637 2.79 1.23305 2.18586 1.76186 1.68129C2.29066 1.17672 2.92422 0.782811 3.62202 0.524771C4.43601 0.234018 5.29595 0.0770465 6.16514 0.0605508C7.29028 0.0110095 7.64862 0 10.5 0ZM14.7385 1.86055C13.6327 1.81284 13.2994 1.80183 10.5 1.80183C7.70064 1.80183 7.36349 1.81284 6.26147 1.86055C5.59457 1.86705 4.93379 1.98249 4.30789 2.20183C3.85427 2.36839 3.44231 2.62359 3.09854 2.95099C2.75477 3.27839 2.48681 3.67073 2.31193 4.10275C2.08139 4.69758 1.95954 5.32562 1.95165 5.95963C1.90156 7.01284 1.89 7.33028 1.89 9.99633C1.89 12.6624 1.90156 12.9835 1.95165 14.033C1.95866 14.6695 2.08052 15.3001 2.31193 15.8972C2.48681 16.3293 2.75477 16.7216 3.09854 17.049C3.44231 17.3764 3.85427 17.6316 4.30789 17.7982C4.93246 18.0177 5.59191 18.1338 6.25762 18.1413C7.36349 18.189 7.69679 18.2 10.4961 18.2C13.2955 18.2 13.6327 18.189 14.7347 18.1413C15.403 18.1346 16.0651 18.0185 16.6921 17.7982C17.1457 17.6316 17.5577 17.3764 17.9015 17.049C18.2452 16.7216 18.5132 16.3293 18.6881 15.8972C18.9186 15.3024 19.0405 14.6744 19.0483 14.0404C19.0984 12.9872 19.11 12.6697 19.11 10.0037C19.11 7.33761 19.0984 7.01651 19.0483 5.96697C19.0413 5.33049 18.9195 4.6999 18.6881 4.10275C18.5132 3.67073 18.2452 3.27839 17.9015 2.95099C17.5577 2.62359 17.1457 2.36839 16.6921 2.20183C16.0674 1.9829 15.408 1.86747 14.7424 1.86055H14.7385ZM10.5 13.3339C11.1924 13.3339 11.8692 13.1384 12.4448 12.7721C13.0205 12.4057 13.4692 11.885 13.7342 11.2758C13.9991 10.6666 14.0685 9.9963 13.9334 9.34958C13.7983 8.70286 13.4649 8.1088 12.9753 7.64254C12.4858 7.17628 11.862 6.85876 11.1829 6.73012C10.5039 6.60147 9.80002 6.6675 9.16036 6.91984C8.5207 7.17217 7.97398 7.59949 7.58932 8.14776C7.20467 8.69602 6.99935 9.34061 6.99935 10C6.99987 10.8841 7.36885 11.7318 8.02523 12.3569C8.68162 12.982 9.57173 13.3335 10.5 13.3339ZM10.5 4.86422C11.5669 4.86422 12.6099 5.16554 13.497 5.73006C14.3841 6.29459 15.0756 7.09698 15.4839 8.03575C15.8922 8.97453 15.999 10.0075 15.7908 11.0041C15.5827 12.0007 15.0689 12.9162 14.3145 13.6347C13.56 14.3532 12.5988 14.8425 11.5524 15.0407C10.506 15.239 9.42133 15.1372 8.43561 14.7484C7.4499 14.3595 6.60739 13.701 6.01464 12.8561C5.42189 12.0113 5.1055 11.018 5.1055 10.0018C5.1055 8.63925 5.67385 7.33248 6.68552 6.36899C7.69718 5.4055 9.06929 4.86422 10.5 4.86422ZM17.3645 4.66239C17.3645 4.89972 17.2906 5.13173 17.1521 5.32907C17.0137 5.52641 16.8169 5.68021 16.5867 5.77104C16.3564 5.86187 16.1031 5.88563 15.8587 5.83933C15.6143 5.79302 15.3898 5.67874 15.2135 5.51091C15.0373 5.34309 14.9173 5.12927 14.8687 4.89649C14.8201 4.66372 14.845 4.42244 14.9404 4.20317C15.0358 3.98389 15.1973 3.79648 15.4045 3.66462C15.6117 3.53276 15.8553 3.46239 16.1045 3.46239C16.4387 3.46239 16.7592 3.58881 16.9955 3.81386C17.2317 4.0389 17.3645 4.34413 17.3645 4.66239Z" fill="#787A80"/>
</svg>
