<svg width="15" height="15" viewBox="0 0 15 15" fill="none" xmlns="http://www.w3.org/2000/svg">
<path fill-rule="evenodd" clip-rule="evenodd" d="M7.5 0C9.5367 0 9.79266 0.00795155 10.5922 0.0437325C11.2144 0.055197 11.8301 0.168576 12.4128 0.379013C12.9109 0.564942 13.3632 0.848826 13.7409 1.21254C14.1186 1.57626 14.4134 2.01182 14.6064 2.49141C14.8245 3.05132 14.9422 3.64283 14.9546 4.2407C14.9917 5.01065 15 5.25714 15 7.21847C15 9.17979 14.9917 9.42628 14.9546 10.1962C14.9427 10.7954 14.8249 11.3883 14.6064 11.9495C14.4134 12.4291 14.1186 12.8646 13.7409 13.2284C13.3632 13.5921 12.9109 13.876 12.4128 14.0619C11.8317 14.2732 11.2174 14.388 10.5963 14.4012C9.79679 14.4369 9.54083 14.4449 7.50413 14.4449C5.46743 14.4449 5.21147 14.4369 4.41193 14.4012C3.78969 14.3897 3.17401 14.2763 2.59128 14.0659C2.09326 13.8799 1.64096 13.5961 1.26327 13.2323C0.885574 12.8686 0.590783 12.4331 0.397708 11.9535C0.178235 11.3938 0.0591042 10.8023 0.045411 10.2042C0.00825503 9.43423 0 9.18774 0 7.22642C0 5.26509 0.00825503 5.0186 0.045411 4.24865C0.0573161 3.64944 0.175052 3.05655 0.393576 2.49539C0.586169 2.01506 0.880749 1.57873 1.25847 1.2143C1.63619 0.849877 2.08873 0.565381 2.58715 0.379013C3.16858 0.169019 3.78282 0.0556464 4.40367 0.0437325C5.20734 0.00795155 5.4633 0 7.5 0ZM10.5275 1.34377C9.73761 1.30932 9.49954 1.30136 7.5 1.30136C5.50046 1.30136 5.25963 1.30932 4.47248 1.34377C3.99612 1.34847 3.52413 1.43184 3.07706 1.59026C2.75305 1.71056 2.4588 1.89487 2.21325 2.13134C1.9677 2.3678 1.7763 2.65117 1.65138 2.96319C1.48671 3.3928 1.39967 3.8464 1.39404 4.30431C1.35826 5.06499 1.35 5.29425 1.35 7.21979C1.35 9.14534 1.35826 9.37725 1.39404 10.1353C1.39904 10.595 1.48609 11.0504 1.65138 11.4817C1.7763 11.7937 1.9677 12.0771 2.21325 12.3135C2.4588 12.55 2.75305 12.7343 3.07706 12.8546C3.52318 13.0132 3.99422 13.097 4.46973 13.1024C5.25963 13.1369 5.49771 13.1448 7.49725 13.1448C9.49679 13.1448 9.73762 13.1369 10.5248 13.1024C11.0021 13.0976 11.4751 13.0138 11.9229 12.8546C12.247 12.7343 12.5412 12.55 12.7868 12.3135C13.0323 12.0771 13.2237 11.7937 13.3486 11.4817C13.5133 11.0521 13.6003 10.5985 13.606 10.1406C13.6417 9.3799 13.65 9.15064 13.65 7.22509C13.65 5.29955 13.6417 5.06764 13.606 4.30961C13.601 3.84992 13.5139 3.39447 13.3486 2.96319C13.2237 2.65117 13.0323 2.3678 12.7868 2.13134C12.5412 1.89487 12.247 1.71056 11.9229 1.59026C11.4767 1.43214 11.0057 1.34877 10.5303 1.34377H10.5275ZM7.5 9.63037C7.99454 9.63037 8.47798 9.48914 8.88918 9.22456C9.30038 8.95997 9.62087 8.58391 9.81012 8.14392C9.99938 7.70392 10.0489 7.21977 9.95241 6.75268C9.85593 6.28559 9.61779 5.85654 9.26809 5.51978C8.9184 5.18303 8.47286 4.9537 7.98782 4.86079C7.50278 4.76788 7.00001 4.81556 6.54311 4.99781C6.08622 5.18006 5.6957 5.48869 5.42095 5.88467C5.14619 6.28065 4.99954 6.7462 4.99954 7.22244C4.9999 7.86096 5.26346 8.47322 5.73231 8.92471C6.20116 9.37621 6.83695 9.63001 7.5 9.63037ZM7.5 3.51316C8.26209 3.51316 9.00707 3.73078 9.64073 4.13851C10.2744 4.54623 10.7683 5.12575 11.0599 5.80378C11.3515 6.4818 11.4278 7.22788 11.2792 7.94767C11.1305 8.66746 10.7635 9.32863 10.2246 9.84757C9.68575 10.3665 8.99917 10.7199 8.25172 10.8631C7.50427 11.0063 6.72952 10.9328 6.02544 10.6519C5.32136 10.3711 4.71957 9.89548 4.29617 9.28527C3.87277 8.67507 3.64679 7.95766 3.64679 7.22377C3.64679 6.23965 4.05275 5.29584 4.77537 4.59997C5.49799 3.90409 6.47807 3.51316 7.5 3.51316ZM12.4032 3.36738C12.4032 3.5388 12.3504 3.70636 12.2515 3.84889C12.1526 3.99142 12.0121 4.1025 11.8476 4.1681C11.6832 4.2337 11.5022 4.25086 11.3276 4.21742C11.153 4.18398 10.9927 4.10143 10.8668 3.98023C10.7409 3.85902 10.6552 3.70459 10.6205 3.53646C10.5858 3.36834 10.6036 3.19408 10.6717 3.03571C10.7398 2.87734 10.8552 2.74199 11.0032 2.64675C11.1512 2.55152 11.3252 2.50069 11.5032 2.50069C11.7419 2.50069 11.9708 2.592 12.1396 2.75454C12.3084 2.91707 12.4032 3.13752 12.4032 3.36738Z" fill="white"/>
</svg>
