<svg width="176" height="34" viewBox="0 0 176 34" fill="none" xmlns="http://www.w3.org/2000/svg">
<path fill-rule="evenodd" clip-rule="evenodd" d="M35.3639 4.323H33.4904V6.77662H32.4365V0.584192H35.3639C36.8862 0.584192 37.4717 1.51891 37.4717 2.45361C37.4717 3.50516 36.8862 4.323 35.3639 4.323ZM35.3639 1.51889H33.4904V3.38831H35.3639C36.0665 3.38831 36.5349 3.03781 36.5349 2.45361C36.5349 1.86942 36.0665 1.51889 35.3639 1.51889ZM38.994 6.77662H37.9401L40.6334 0.584192H41.6873L44.3806 6.77662H43.3267L42.7412 5.37458H39.5795L38.994 6.77662ZM41.2189 1.86942L40.0479 4.43985H42.2728L41.2189 1.86942ZM49.1816 0.584192H50.2355L47.8935 4.55669V6.77662H46.8397V4.55669L44.4977 0.584192H45.6687L47.4252 3.50515L49.1816 0.584192ZM55.2708 6.77662L52.6946 2.21992V6.77662H51.6407V0.584192H52.8117L55.2708 4.90719L57.847 0.584192H58.9009V6.77662H57.9641V2.21992L55.2708 6.77662ZM62.0625 1.63573V3.27146H65.2242V4.20619H62.0625V5.84192H65.2242V6.77662H61.0087V0.701038H65.2242V1.63573H62.0625ZM72.8357 0.701038V6.77662H71.6647L68.2688 2.21992V6.77662H67.332V0.701038H68.3859L71.7818 5.25773V0.701038H72.8357ZM79.6274 0.701038V1.63573H77.6367V6.77662H76.5828V1.63573H74.4751V0.701038H79.6274ZM37.823 17.2921H36.5349L35.5981 16.4742C35.1297 17.0584 34.4272 17.4089 33.7246 17.4089C32.4365 17.4089 31.851 16.5911 31.851 15.7732C31.851 15.0722 32.3194 14.6048 33.022 14.1375L32.7878 13.9038C32.5536 13.6701 32.0852 13.2027 32.0852 12.6185C32.0852 11.567 33.0219 10.9828 33.8416 10.9828C34.8955 10.9828 35.7152 11.6838 35.7152 12.6185C35.7152 13.2027 35.2468 13.6701 34.7784 14.0206L34.4271 14.2543L35.5981 15.189L37.2375 13.4364V14.7217L36.1836 15.7732L37.823 17.2921ZM33.7246 14.8385L33.4904 14.9553C33.1391 15.189 32.7878 15.4227 32.7878 15.89C32.7878 16.2406 33.1391 16.591 33.7246 16.591C34.193 16.591 34.6613 16.2406 35.0126 15.89L33.7246 14.8385ZM33.1391 12.7354C33.1391 13.0859 33.3733 13.3196 33.6074 13.5533L33.8416 13.7869L34.1929 13.4364C34.6613 13.2027 34.7784 12.9691 34.7784 12.7354C34.7784 12.3849 34.31 12.0343 33.8416 12.0343C33.4903 12.0343 33.1391 12.268 33.1391 12.7354ZM42.9754 12.268V13.9038H46.1371V14.8385H42.9754V17.4089H41.9215V11.3333H46.1371V12.268H42.9754ZM49.0645 17.4089H48.0106V11.3333H49.0645V17.4089ZM56.676 11.2165V17.4089H55.6221L52.2262 12.7354V17.4089H51.1723V11.2165H52.3433L55.7392 15.89V11.2165H56.676ZM59.018 17.4089H58.0812L60.6574 11.2165H61.7112L64.4045 17.4089H63.3506L62.7651 16.0068H59.7206L59.018 17.4089ZM61.1257 12.5017L59.9548 15.0722H62.2967L61.1257 12.5017ZM71.1963 11.2165V17.4089H70.1424L66.7465 12.7354V17.4089H65.6926V11.2165H66.8636L70.2595 15.89V11.2165H71.1963ZM74.0067 14.3711C74.0067 15.6563 74.8264 16.591 76.1144 16.591C76.817 16.591 77.4025 16.2405 77.7538 15.7732H78.8077C78.3393 16.8247 77.4025 17.5258 76.1144 17.5258C74.358 17.5258 72.9528 16.1237 72.9528 14.3711C72.9528 12.5017 74.358 11.0997 76.1144 11.0997C77.4025 11.0997 78.3393 11.8007 78.8077 12.8522H77.7538C77.4025 12.3849 76.817 12.0343 76.1144 12.0343C74.8264 12.0343 74.0067 12.9691 74.0067 14.3711ZM81.6181 17.4089H80.5642V11.2165H81.6181V17.4089ZM84.0772 17.4089H83.0233L85.7166 11.3333H86.7705L89.4637 17.4089H88.2927L87.7073 16.0068H84.6627L84.0772 17.4089ZM86.185 12.6185L85.1311 15.189H87.356L86.185 12.6185ZM91.8057 16.4742H95.0845V17.4089H90.7518V11.3333H91.8057V16.4742ZM103.047 11.2165V12.1512H100.939V17.4089H99.8856V12.1512H97.8949V11.2165H103.047ZM105.623 12.1512V13.9038H108.785V14.8385H105.623V16.4742H108.902V17.4089H104.687V11.2165H108.902V12.1512H105.623ZM111.361 14.3711C111.361 15.6563 112.298 16.591 113.586 16.591C114.289 16.591 114.757 16.2405 115.108 15.7732H116.279C115.811 16.8247 114.874 17.5258 113.586 17.5258C111.713 17.5258 110.424 16.1237 110.424 14.3711C110.424 12.5017 111.713 11.0997 113.586 11.0997C114.874 11.0997 115.811 11.8007 116.279 12.8522H115.108C114.757 12.3849 114.289 12.0343 113.586 12.0343C112.298 12.0343 111.361 13.0859 111.361 14.3711ZM122.369 17.4089V14.8385H119.09V17.4089H118.036V11.2165H119.09V13.9038H122.369V11.2165H123.305V17.4089H122.369ZM131.151 11.2165V17.4089H129.98L126.584 12.7354V17.4089H125.647V11.2165H126.701L130.097 15.89V11.2165H131.151ZM139.348 14.3711C139.348 16.1237 137.943 17.5258 136.186 17.5258C134.313 17.5258 132.908 16.1237 132.908 14.3711C132.908 12.5017 134.313 11.0997 136.186 11.0997C137.943 11.0997 139.348 12.5017 139.348 14.3711ZM138.294 14.3711C138.294 13.0859 137.357 12.0343 136.186 12.0343C134.898 12.0343 133.961 13.0859 133.961 14.3711C133.961 15.6563 134.898 16.591 136.186 16.591C137.357 16.591 138.294 15.6563 138.294 14.3711ZM142.158 16.4742H145.32V17.4089H141.104V11.2165H142.158V16.4742ZM152.58 14.3711C152.58 16.1237 151.175 17.5258 149.419 17.5258C147.545 17.5258 146.257 16.1237 146.257 14.3711C146.257 12.6185 147.545 11.2165 149.419 11.2165C151.175 11.2165 152.58 12.6185 152.58 14.3711ZM151.526 14.3711C151.526 13.0859 150.59 12.1512 149.419 12.1512C148.13 12.1512 147.194 13.0859 147.194 14.3711C147.194 15.6563 148.13 16.591 149.419 16.591C150.59 16.591 151.526 15.6563 151.526 14.3711ZM155.039 14.3711C155.039 15.6563 155.976 16.591 157.147 16.591C158.201 16.591 158.786 16.0069 159.021 15.0722H156.913V14.1375H160.075C160.075 16.2406 158.786 17.5258 157.147 17.5258C155.391 17.5258 153.985 16.2405 153.985 14.3711C153.985 12.6185 155.391 11.2165 157.147 11.2165C158.435 11.2165 159.372 11.9175 159.957 12.9691H158.786C158.435 12.5017 157.85 12.1512 157.147 12.1512C155.976 12.1512 155.039 13.0859 155.039 14.3711ZM163.002 17.4089H161.948V11.3333H163.002V17.4089ZM166.164 12.1512V13.9038H169.208V14.8385H166.164V16.4742H169.325V17.4089H165.11V11.2165H169.325V12.1512H166.164ZM171.902 15.7732C172.136 16.3574 172.838 16.591 173.541 16.591C174.361 16.591 174.946 16.2405 174.946 15.6563C174.946 15.189 174.595 14.9553 173.775 14.8385L172.721 14.7217C171.55 14.6048 170.965 13.9038 170.965 13.0859C170.965 11.9175 171.902 11.0997 173.424 11.0997C174.946 11.0997 175.766 12.0344 176 12.8522H174.946C174.712 12.3849 174.126 12.0343 173.424 12.0343C172.487 12.0343 172.019 12.5017 172.019 12.9691C172.019 13.4364 172.37 13.7869 173.073 13.7869L174.126 13.9038C175.297 14.0206 176 14.7216 176 15.6563C176 16.5911 175.18 17.5258 173.541 17.5258C171.902 17.5258 171.082 16.7079 170.848 15.7732H171.902ZM34.5442 21.732C36.652 21.732 37.9401 23.134 37.9401 24.7697C37.9401 26.5223 36.652 27.9244 34.5442 27.9244H32.4365V21.732H34.5442ZM34.5442 22.6667H33.4904V26.9897H34.5442C35.9494 26.9897 36.8862 26.055 36.8862 24.7697C36.8862 23.6013 35.9494 22.6667 34.5442 22.6667ZM40.7505 22.6667V24.3024H43.9122V25.2371H40.7505V26.9897H43.9122V27.9244H39.6966V21.732H43.9122V22.6667H40.7505ZM48.3619 26.6392L50.4697 21.732H51.5236L48.9474 27.9244H47.8935L45.3174 21.732H46.3713L48.3619 26.6392ZM53.8656 22.6667V24.4192H57.0273V25.3539H53.8656V26.9897H57.1444V27.9244H52.9288V21.732H57.1444V22.6667H53.8656ZM60.0719 26.9897H63.2335V27.9244H59.018V21.732H60.0719V26.9897ZM70.4937 24.8866C70.4937 26.6392 69.2056 28.0412 67.332 28.0412C65.4584 28.0412 64.1703 26.6392 64.1703 24.8866C64.1703 23.134 65.4584 21.732 67.332 21.732C69.2056 21.732 70.4937 23.134 70.4937 24.8866ZM69.4398 24.8866C69.4398 23.6014 68.503 22.6667 67.332 22.6667C66.0439 22.6667 65.1071 23.6014 65.1071 24.8866C65.1071 26.1718 66.0439 27.1065 67.332 27.1065C68.503 27.1065 69.4398 26.1718 69.4398 24.8866ZM75.2947 25.4708H73.3041V27.9244H72.2502V21.8488H75.2947C76.6999 21.8488 77.2854 22.6666 77.2854 23.7182C77.2854 24.6529 76.6999 25.4708 75.2947 25.4708ZM75.1777 22.7835H73.3041V24.5361H75.1777C75.8803 24.5361 76.3487 24.3024 76.3487 23.7182C76.3487 23.134 75.8803 22.7835 75.1777 22.7835ZM82.7891 27.9244L80.0958 23.4845V27.9244H79.0419V21.8488H80.33L82.7891 26.055L85.2482 21.8488H86.4192V27.9244H85.3653V23.4845L82.7891 27.9244ZM89.5808 22.6667V24.3024H92.7425V25.2371H89.5808V26.9897H92.8596V27.9244H88.527V21.732H92.8596V22.6667H89.5808ZM100.237 21.732V27.9244H99.183L95.7871 23.2508V27.9244H94.7332V21.732H95.9042L99.3001 26.4055V21.732H100.237ZM106.911 21.732V22.6667H104.921V27.9244H103.867V22.6667H101.759V21.732H106.911ZM111.478 24.8866C111.478 26.1718 112.415 27.1065 113.586 27.1065C114.289 27.1065 114.874 26.756 115.226 26.2887H116.397C115.928 27.3402 114.874 28.0412 113.586 28.0412C111.83 28.0412 110.424 26.6392 110.424 24.8866C110.424 23.0172 111.83 21.6151 113.586 21.6151C114.874 21.6151 115.928 22.3161 116.397 23.3677H115.226C114.874 22.9003 114.289 22.5498 113.586 22.5498C112.415 22.5498 111.478 23.4845 111.478 24.8866ZM119.09 22.6667V24.3024H122.251V25.2371H119.09V26.9897H122.369V27.9244H118.153V21.732H122.369V22.6667H119.09ZM129.863 21.732V27.9244H128.692L125.296 23.2508V27.9244H124.242V21.732H125.413L128.809 26.4055V21.732H129.863ZM136.655 21.732V22.6667H134.547V27.9244H133.493V22.6667H131.502V21.732H136.655ZM139.231 22.6667V24.3024H142.393V25.2371H139.231V26.9897H142.51V27.9244H138.177V21.732H142.51V22.6667H139.231ZM147.311 25.4708H146.959L149.653 27.9244H148.248L145.554 25.4708H145.437V27.9244H144.383V21.732H147.311C148.833 21.732 149.419 22.6666 149.419 23.6013C149.419 24.6529 148.833 25.4708 147.311 25.4708ZM147.311 22.6667H145.437V24.5361H147.311C148.013 24.5361 148.365 24.1855 148.365 23.6013C148.365 23.0172 148.013 22.6667 147.311 22.6667ZM8.07983 0H8.66533V25.9381H13.4664V28.3917H7.84564V30.0275H3.27878V24.4192H5.73785V27.9244C5.81592 28.0023 5.894 28.0802 5.97206 28.1581C5.97206 28.3918 5.73785 28.6254 5.50366 28.6254C5.26946 28.6254 5.03527 28.3918 5.03527 28.1581C5.03527 28.0802 5.11333 28.0023 5.26946 27.9244V24.8866H3.86428V29.4433H7.26014V27.8075H12.8809V26.5223H8.07983V0ZM11.827 0H12.2954V8.99654H10.5389V22.6667H17.0965V29.9107L12.7638 34L8.31405 30.0275H11.827L12.6467 30.8453L14.7545 28.8591V24.8866H10.7731C10.6951 24.9645 10.5779 25.0034 10.4218 25.0034C10.1876 25.0034 10.0705 24.7698 10.0705 24.6529C10.0705 24.4192 10.1876 24.1855 10.4218 24.1855C10.5779 24.1855 10.6951 24.2245 10.7731 24.3024H15.34V29.0928L12.7638 31.5464L11.7099 30.4948H9.71923L12.7638 33.299L16.6281 29.677V23.2508H9.95343V8.52919H11.827V0ZM9.95343 0H10.5389V6.54296C10.617 6.62085 10.656 6.69872 10.656 6.77662C10.656 7.01029 10.4218 7.24396 10.1876 7.24396C9.95342 7.24396 9.71923 7.01029 9.71923 6.77662C9.7973 6.69872 9.87536 6.62085 9.95343 6.54296V0ZM17.9162 0H18.5017V17.0584L22.0146 20.3299L22.1317 29.9107H19.7897V21.2646L18.7359 20.0962V29.3265C18.8139 29.3265 18.892 29.4043 18.9701 29.5601C18.9701 29.7938 18.7359 29.9107 18.5017 29.9107C18.2675 29.9107 18.0333 29.7938 18.0333 29.5601C18.0333 29.4043 18.1113 29.3265 18.2675 29.3265V18.811L20.3752 21.0309V29.4433H21.5462L21.4291 20.5636L17.9162 17.2921V0ZM4.09847 0H4.68397V17.2921L0.81969 20.9141L2.69328 22.7835H6.90884V19.1615H5.97206V21.8488H3.04458V20.6804C2.96652 20.6025 2.92748 20.4857 2.92748 20.3299C2.92748 20.0962 3.16167 19.9794 3.39587 19.9794C3.63007 19.9794 3.74717 20.0962 3.74717 20.3299C3.74717 20.4857 3.70815 20.6025 3.63008 20.6804V21.2646H5.38657V18.5773H7.49434V23.2508H2.45909L0 20.9141L4.09847 17.0584V0ZM6.20626 0H6.79175V16.8247C6.86982 16.9026 6.90884 17.0194 6.90884 17.1752C6.90884 17.4089 6.67465 17.5258 6.44045 17.5258C6.20625 17.5258 6.08915 17.4089 6.08915 17.1752C6.08915 17.0194 6.12819 16.9026 6.20626 16.8247V0ZM13.8177 0H14.4032V9.11339H16.511V21.3814H11.827V10.866H14.4032V19.0447C14.4813 19.1225 14.5203 19.2394 14.5203 19.3952C14.5203 19.512 14.2861 19.7457 14.0519 19.7457C13.8177 19.7457 13.7006 19.512 13.7006 19.3952C13.7006 19.2394 13.7396 19.1225 13.8177 19.0447V11.3333H12.4125V20.9141H15.9255V9.69758H13.8177V0ZM20.024 0H20.6095V15.5395C20.6875 15.6174 20.7265 15.6953 20.7265 15.7732C20.7265 16.0069 20.4924 16.2405 20.2582 16.2405C20.024 16.2405 19.9069 16.0069 19.9069 15.7732C19.9069 15.6953 19.9459 15.6174 20.024 15.5395V0ZM15.8084 0H16.3939V7.36081C16.4719 7.4387 16.511 7.51661 16.511 7.5945C16.511 7.82818 16.3939 8.06185 16.1597 8.06185C15.9255 8.06185 15.6913 7.82818 15.6913 7.5945C15.6913 7.51661 15.7303 7.4387 15.8084 7.36081V0ZM22.9514 24.0687L23.0685 21.1478C22.9905 21.0699 22.9514 20.953 22.9514 20.7972C22.9514 20.5636 23.0685 20.4467 23.3027 20.4467C23.5369 20.4467 23.7711 20.6804 23.7711 20.9141C23.7711 20.992 23.7321 21.0699 23.654 21.1478L23.5369 22.6667L25.6447 20.7972L22.0146 17.1752V0H22.483V16.9416L26.4644 20.7972L22.9514 24.0687Z" fill="white"/>
</svg>
