<svg width="181" height="33" viewBox="0 0 181 33" fill="none" xmlns="http://www.w3.org/2000/svg">
<path fill-rule="evenodd" clip-rule="evenodd" d="M36.3686 4.79945H34.4418V7.0899H33.3579V1.30926H36.3686C37.9341 1.30926 38.5363 2.18182 38.5363 3.05437C38.5363 4.03599 37.9341 4.79945 36.3686 4.79945ZM36.3686 2.1818H34.4418V3.92691H36.3686C37.0911 3.92691 37.5729 3.59972 37.5729 3.05437C37.5729 2.50903 37.0911 2.1818 36.3686 2.1818ZM40.1018 7.0899H39.018L41.7878 1.30926H42.8716L45.6414 7.0899H44.5576L43.9554 5.7811H40.7039L40.1018 7.0899ZM42.3899 2.50903L41.1856 4.90852H43.4737L42.3899 2.50903ZM50.5788 1.30926H51.6627L49.2542 5.0176V7.0899H48.1703V5.0176L45.7618 1.30926H46.9661L48.7725 4.03599L50.5788 1.30926ZM56.841 7.0899L54.1916 2.83622V7.0899H53.1078V1.30926H54.3121L56.841 5.34479L59.4903 1.30926H60.5742V7.0899H59.6108V2.83622L56.841 7.0899ZM63.8257 2.29088V3.81783H67.0772V4.69041H63.8257V6.21736H67.0772V7.0899H62.7419V1.41834H67.0772V2.29088H63.8257ZM74.9049 1.41834V7.0899H73.7006L70.2083 2.83622V7.0899H69.2449V1.41834H70.3287L73.821 5.67202V1.41834H74.9049ZM81.8896 1.41834V2.29088H79.8423V7.0899H78.7585V2.29088H76.5908V1.41834H81.8896ZM38.8975 16.9061H37.5729L36.6094 16.1426C36.1277 16.688 35.4052 17.0152 34.6826 17.0152C33.358 17.0152 32.7558 16.2517 32.7558 15.4882C32.7558 14.8338 33.2375 14.3975 33.9601 13.9613L33.7192 13.7431C33.4784 13.525 32.9967 13.0887 32.9967 12.5434C32.9967 11.5617 33.9601 11.0164 34.8031 11.0164C35.8869 11.0164 36.7299 11.6708 36.7299 12.5434C36.7299 13.0887 36.2482 13.525 35.7665 13.8522L35.4052 14.0703L36.6094 14.9429L38.2954 13.3068V14.5066L37.2116 15.4882L38.8975 16.9061ZM34.6826 14.6157L34.4418 14.7247C34.0805 14.9429 33.7192 15.161 33.7192 15.5973C33.7192 15.9245 34.0805 16.2517 34.6826 16.2517C35.1643 16.2517 35.646 15.9245 36.0073 15.5973L34.6826 14.6157ZM34.0805 12.6524C34.0805 12.9796 34.3214 13.1978 34.5622 13.4159L34.8031 13.634L35.1643 13.3068C35.646 13.0887 35.7665 12.8706 35.7665 12.6524C35.7665 12.3252 35.2848 11.998 34.8031 11.998C34.4418 11.998 34.0805 12.2162 34.0805 12.6524ZM44.1963 12.2162V13.7431H47.4478V14.6157H44.1963V17.0152H43.1124V11.3436H47.4478V12.2162H44.1963ZM50.4584 17.0152H49.3746V11.3436H50.4584V17.0152ZM58.2861 11.2345V17.0152H57.2023L53.7099 12.6524V17.0152H52.6261V11.2345H53.8303L57.3227 15.5973V11.2345H58.2861ZM60.6946 17.0152H59.7312L62.3806 11.2345H63.4644L66.2342 17.0152H65.1504L64.5482 15.7063H61.4172L60.6946 17.0152ZM62.8623 12.4343L61.658 14.8338H64.0665L62.8623 12.4343ZM73.2189 11.2345V17.0152H72.1351L68.6427 12.6524V17.0152H67.5589V11.2345H68.7632L72.2555 15.5973V11.2345H73.2189ZM76.1091 14.1794C76.1091 15.3791 76.9521 16.2517 78.2768 16.2517C78.9993 16.2517 79.6015 15.9245 79.9627 15.4882H81.0466C80.5649 16.4698 79.6015 17.1243 78.2768 17.1243C76.4704 17.1243 75.0253 15.8154 75.0253 14.1794C75.0253 12.4343 76.4704 11.1255 78.2768 11.1255C79.6015 11.1255 80.5649 11.7799 81.0466 12.7615H79.9627C79.6015 12.3252 78.9993 11.998 78.2768 11.998C76.9521 11.998 76.1091 12.8706 76.1091 14.1794ZM83.9368 17.0152H82.853V11.2345H83.9368V17.0152ZM86.4657 17.0152H85.3819L88.1517 11.3436H89.2355L92.0053 17.0152H90.8011L90.1989 15.7063H87.0679L86.4657 17.0152ZM88.6334 12.5434L87.5496 14.9429H89.8377L88.6334 12.5434ZM94.4138 16.1426H97.7858V17.0152H93.33V11.3436H94.4138V16.1426ZM105.975 11.2345V12.1071H103.807V17.0152H102.723V12.1071H100.676V11.2345H105.975ZM108.624 12.1071V13.7431H111.876V14.6157H108.624V16.1426H111.996V17.0152H107.661V11.2345H111.996V12.1071H108.624ZM114.525 14.1794C114.525 15.3791 115.488 16.2517 116.813 16.2517C117.536 16.2517 118.017 15.9245 118.379 15.4882H119.583C119.101 16.4698 118.138 17.1243 116.813 17.1243C114.886 17.1243 113.562 15.8154 113.562 14.1794C113.562 12.4343 114.886 11.1255 116.813 11.1255C118.138 11.1255 119.101 11.7799 119.583 12.7615H118.379C118.017 12.3252 117.536 11.998 116.813 11.998C115.488 11.998 114.525 12.9796 114.525 14.1794ZM125.845 17.0152V14.6157H122.473V17.0152H121.389V11.2345H122.473V13.7431H125.845V11.2345H126.808V17.0152H125.845ZM134.877 11.2345V17.0152H133.673L130.18 12.6524V17.0152H129.217V11.2345H130.301L133.793 15.5973V11.2345H134.877ZM143.307 14.1794C143.307 15.8154 141.862 17.1243 140.055 17.1243C138.128 17.1243 136.683 15.8154 136.683 14.1794C136.683 12.4343 138.128 11.1255 140.055 11.1255C141.862 11.1255 143.307 12.4343 143.307 14.1794ZM142.223 14.1794C142.223 12.9796 141.259 11.998 140.055 11.998C138.731 11.998 137.767 12.9796 137.767 14.1794C137.767 15.3791 138.731 16.2517 140.055 16.2517C141.259 16.2517 142.223 15.3791 142.223 14.1794ZM146.197 16.1426H149.448V17.0152H145.113V11.2345H146.197V16.1426ZM156.915 14.1794C156.915 15.8154 155.47 17.1243 153.663 17.1243C151.737 17.1243 150.412 15.8154 150.412 14.1794C150.412 12.5434 151.737 11.2345 153.663 11.2345C155.47 11.2345 156.915 12.5434 156.915 14.1794ZM155.831 14.1794C155.831 12.9796 154.868 12.1071 153.663 12.1071C152.339 12.1071 151.375 12.9796 151.375 14.1794C151.375 15.3791 152.339 16.2517 153.663 16.2517C154.868 16.2517 155.831 15.3791 155.831 14.1794ZM159.444 14.1794C159.444 15.3791 160.407 16.2517 161.611 16.2517C162.695 16.2517 163.297 15.7064 163.538 14.8338H161.371V13.9613H164.622C164.622 15.9245 163.297 17.1243 161.611 17.1243C159.805 17.1243 158.36 15.9245 158.36 14.1794C158.36 12.5434 159.805 11.2345 161.611 11.2345C162.936 11.2345 163.9 11.889 164.502 12.8706H163.297C162.936 12.4343 162.334 12.1071 161.611 12.1071C160.407 12.1071 159.444 12.9796 159.444 14.1794ZM167.633 17.0152H166.549V11.3436H167.633V17.0152ZM170.884 12.1071V13.7431H174.015V14.6157H170.884V16.1426H174.136V17.0152H169.8V11.2345H174.136V12.1071H170.884ZM176.785 15.4882C177.026 16.0336 177.749 16.2517 178.471 16.2517C179.314 16.2517 179.916 15.9245 179.916 15.3792C179.916 14.9429 179.555 14.7247 178.712 14.6157L177.628 14.5066C176.424 14.3975 175.822 13.7431 175.822 12.9796C175.822 11.8889 176.785 11.1255 178.351 11.1255C179.916 11.1255 180.759 11.998 181 12.7615H179.916C179.675 12.3252 179.073 11.998 178.351 11.998C177.387 11.998 176.906 12.4343 176.906 12.8706C176.906 13.3069 177.267 13.634 177.989 13.634L179.073 13.7431C180.277 13.8522 181 14.5066 181 15.3792C181 16.2517 180.157 17.1243 178.471 17.1243C176.785 17.1243 175.942 16.3608 175.701 15.4882H176.785ZM35.5256 21.0508C37.6933 21.0508 39.018 22.3596 39.018 23.8865C39.018 25.5226 37.6933 26.8314 35.5256 26.8314H33.3579V21.0508H35.5256ZM35.5256 21.9233H34.4418V25.9589H35.5256C36.9707 25.9589 37.9341 25.0863 37.9341 23.8865C37.9341 22.7958 36.9707 21.9233 35.5256 21.9233ZM41.9082 21.9233V23.4503H45.1597V24.3228H41.9082V25.9589H45.1597V26.8314H40.8243V21.0508H45.1597V21.9233H41.9082ZM49.7359 25.6316L51.9035 21.0508H52.9874L50.338 26.8314H49.2542L46.6048 21.0508H47.6886L49.7359 25.6316ZM55.3959 21.9233V23.5593H58.6474V24.4319H55.3959V25.9589H58.7678V26.8314H54.4325V21.0508H58.7678V21.9233H55.3959ZM61.7785 25.9589H65.0299V26.8314H60.6946V21.0508H61.7785V25.9589ZM72.4964 23.9956C72.4964 25.6316 71.1717 26.9405 69.2449 26.9405C67.318 26.9405 65.9934 25.6316 65.9934 23.9956C65.9934 22.3596 67.318 21.0508 69.2449 21.0508C71.1717 21.0508 72.4964 22.3596 72.4964 23.9956ZM71.4125 23.9956C71.4125 22.7958 70.4491 21.9233 69.2449 21.9233C67.9202 21.9233 66.9568 22.7958 66.9568 23.9956C66.9568 25.1954 67.9202 26.0679 69.2449 26.0679C70.4491 26.0679 71.4125 25.1954 71.4125 23.9956ZM77.4338 24.5409H75.3866V26.8314H74.3027V21.1598H77.4338C78.8789 21.1598 79.481 21.9233 79.481 22.9049C79.481 23.7775 78.8789 24.5409 77.4338 24.5409ZM77.3134 22.0324H75.3866V23.6684H77.3134C78.0359 23.6684 78.5176 23.4503 78.5176 22.9049C78.5176 22.3596 78.0359 22.0324 77.3134 22.0324ZM85.1411 26.8314L82.3713 22.6868V26.8314H81.2874V21.1598H82.6121L85.1411 25.0863L87.67 21.1598H88.8742V26.8314H87.7904V22.6868L85.1411 26.8314ZM92.1258 21.9233V23.4503H95.3773V24.3228H92.1258V25.9589H95.4977V26.8314H91.0419V21.0508H95.4977V21.9233H92.1258ZM103.085 21.0508V26.8314H102.001L98.5083 22.4686V26.8314H97.4245V21.0508H98.6287L102.121 25.4135V21.0508H103.085ZM109.949 21.0508V21.9233H107.902V26.8314H106.818V21.9233H104.65V21.0508H109.949ZM114.645 23.9956C114.645 25.1954 115.609 26.0679 116.813 26.0679C117.536 26.0679 118.138 25.7407 118.499 25.3044H119.703C119.222 26.2861 118.138 26.9405 116.813 26.9405C115.007 26.9405 113.562 25.6316 113.562 23.9956C113.562 22.2505 115.007 20.9417 116.813 20.9417C118.138 20.9417 119.222 21.5961 119.703 22.5777H118.499C118.138 22.1414 117.536 21.8142 116.813 21.8142C115.609 21.8142 114.645 22.6868 114.645 23.9956ZM122.473 21.9233V23.4503H125.725V24.3228H122.473V25.9589H125.845V26.8314H121.51V21.0508H125.845V21.9233H122.473ZM133.552 21.0508V26.8314H132.348L128.856 22.4686V26.8314H127.772V21.0508H128.976L132.468 25.4135V21.0508H133.552ZM140.537 21.0508V21.9233H138.369V26.8314H137.285V21.9233H135.238V21.0508H140.537ZM143.186 21.9233V23.4503H146.438V24.3228H143.186V25.9589H146.558V26.8314H142.102V21.0508H146.558V21.9233H143.186ZM151.496 24.5409H151.134L153.904 26.8314H152.459L149.689 24.5409H149.569V26.8314H148.485V21.0508H151.496C153.061 21.0508 153.663 21.9233 153.663 22.7958C153.663 23.7775 153.061 24.5409 151.496 24.5409ZM151.496 21.9233H149.569V23.6684H151.496C152.218 23.6684 152.58 23.3412 152.58 22.7958C152.58 22.2505 152.218 21.9233 151.496 21.9233ZM8.30937 0.763916H8.9115V24.9772H13.849V27.2677H8.06853V28.7946H3.37193V23.5593H5.90086V26.8314C5.98114 26.9041 6.06144 26.9768 6.14172 27.0495C6.14172 27.2677 5.90086 27.4858 5.66001 27.4858C5.41916 27.4858 5.17831 27.2677 5.17831 27.0495C5.17831 26.9768 5.25859 26.9041 5.41916 26.8314V23.9956H3.97406V28.2493H7.4664V26.7223H13.2468V25.5226H8.30937V0.763916ZM12.163 0.763916H12.6447V9.16221H10.8383V21.9233H17.5822V28.6856L13.1264 32.503L8.55024 28.7946H12.163L13.006 29.5581L15.1737 27.7039V23.9956H11.0792C10.9989 24.0683 10.8785 24.1047 10.7179 24.1047C10.477 24.1047 10.3566 23.8865 10.3566 23.7775C10.3566 23.5593 10.477 23.3412 10.7179 23.3412C10.8785 23.3412 10.9989 23.3775 11.0792 23.4503H15.7758V27.9221L13.1264 30.2125L12.0426 29.2309H9.99535L13.1264 31.8486L17.1005 28.4674V22.4686H10.2362V8.72594H12.163V0.763916ZM10.2362 0.763916H10.8383V6.87179C10.9186 6.9445 10.9588 7.01719 10.9588 7.0899C10.9588 7.30804 10.7179 7.52617 10.477 7.52617C10.2362 7.52617 9.99535 7.30804 9.99535 7.0899C10.0756 7.01719 10.1559 6.9445 10.2362 6.87179V0.763916ZM18.4252 0.763916H19.0273V16.688L22.6401 19.7419L22.7605 28.6856H20.352V20.6145L19.2681 19.5238V28.1402C19.3484 28.1402 19.4287 28.2129 19.509 28.3584C19.509 28.5765 19.2681 28.6856 19.0273 28.6856C18.7864 28.6856 18.5456 28.5765 18.5456 28.3584C18.5456 28.2129 18.6259 28.1402 18.7864 28.1402V18.324L20.9541 20.3963V28.2493H22.1583L22.0379 19.9601L18.4252 16.9061V0.763916ZM4.2149 0.763916H4.81703V16.9061L0.842977 20.2873L2.7698 22.0324H7.10512V18.6512H6.14172V21.1598H3.13108V20.0691C3.05079 19.9964 3.01065 19.8873 3.01065 19.7419C3.01065 19.5238 3.25149 19.4147 3.49234 19.4147C3.73319 19.4147 3.85362 19.5238 3.85362 19.7419C3.85362 19.8873 3.81349 19.9964 3.73321 20.0691V20.6145H5.5396V18.1059H7.70725V22.4686H2.52895L0 20.2873L4.2149 16.688V0.763916ZM6.38257 0.763916H6.9847V16.4698C7.06499 16.5426 7.10512 16.6516 7.10512 16.797C7.10512 17.0152 6.86427 17.1243 6.62342 17.1243C6.38257 17.1243 6.26214 17.0152 6.26214 16.797C6.26214 16.6516 6.30229 16.5426 6.38257 16.4698V0.763916ZM14.2103 0.763916H14.8124V9.27128H16.98V20.7235H12.163V10.9073H14.8124V18.5421C14.8927 18.6149 14.9328 18.7239 14.9328 18.8694C14.9328 18.9784 14.6919 19.1966 14.4511 19.1966C14.2102 19.1966 14.0898 18.9784 14.0898 18.8694C14.0898 18.7239 14.13 18.6149 14.2103 18.5421V11.3436H12.7651V20.2873H16.3779V9.81663H14.2103V0.763916ZM20.5928 0.763916H21.195V15.2701C21.2752 15.3428 21.3154 15.4155 21.3154 15.4882C21.3154 15.7064 21.0745 15.9245 20.8337 15.9245C20.5928 15.9245 20.4724 15.7064 20.4724 15.4882C20.4724 15.4155 20.5125 15.3428 20.5928 15.2701V0.763916ZM16.2575 0.763916H16.8596V7.63525C16.9399 7.70796 16.98 7.78069 16.98 7.8534C16.98 8.07154 16.8596 8.28967 16.6188 8.28967C16.3779 8.28967 16.1371 8.07154 16.1371 7.8534C16.1371 7.78069 16.1772 7.70796 16.2575 7.63525V0.763916ZM23.6035 23.2321L23.7239 20.5054C23.6436 20.4327 23.6035 20.3236 23.6035 20.1782C23.6035 19.96 23.7239 19.851 23.9647 19.851C24.2056 19.851 24.4464 20.0691 24.4464 20.2873C24.4464 20.36 24.4063 20.4327 24.326 20.5054L24.2056 21.9233L26.3732 20.1782L22.6401 16.797V0.763916H23.1218V16.5789L27.2162 20.1782L23.6035 23.2321Z" fill="url(#paint0_linear_271_1923)"/>
<defs>
<linearGradient id="paint0_linear_271_1923" x1="156.674" y1="-49.626" x2="179.178" y2="18.4534" gradientUnits="userSpaceOnUse">
<stop stop-color="#5FD2DC" stop-opacity="0"/>
<stop offset="0.3" stop-color="#31B9A5"/>
<stop offset="0.9" stop-color="#E4A834"/>
</linearGradient>
</defs>
</svg>
