<svg width="16" height="16" viewBox="0 0 16 16" fill="none" xmlns="http://www.w3.org/2000/svg">
<path fill-rule="evenodd" clip-rule="evenodd" d="M10.5956 14.826C8.58365 14.826 6.21631 13.758 4.22831 11.7713C1.05631 8.59867 0.228313 4.45734 2.34298 2.34267C2.96765 1.71867 3.72765 1.33867 4.60431 1.21201L5.11098 1.13867L6.97565 5.48667L5.11098 6.41867C5.54298 7.23734 6.19765 8.08334 7.05698 8.94267C7.87631 9.76201 8.72165 10.412 9.57031 10.8733L10.4463 9.15801L14.7683 9.77534L14.7936 10.3267C14.857 11.6993 14.4636 12.8507 13.6563 13.6573C12.867 14.4467 11.7943 14.826 10.5956 14.826ZM4.30698 2.64801C3.92365 2.77667 3.58098 2.99067 3.28565 3.28667C1.75231 4.81934 2.61631 8.27334 5.17098 10.8287C7.72698 13.384 11.1803 14.246 12.7136 12.714C13.2243 12.2033 13.4083 11.53 13.4536 10.934L11.209 10.6133L10.7783 11.476C10.6156 11.8013 10.335 12.0407 9.98765 12.1493C9.64031 12.2593 9.25498 12.22 8.93231 12.0447C7.97231 11.5227 7.02365 10.796 6.11365 9.886C5.16031 8.93267 4.42765 7.98 3.93498 7.054C3.76365 6.73067 3.73098 6.36134 3.84165 6.01334C3.95231 5.66734 4.19165 5.388 4.51631 5.22534L5.25365 4.85667L4.30698 2.64801Z" fill="white"/>
</svg>
