<svg width="15" height="16" viewBox="0 0 15 16" fill="none" xmlns="http://www.w3.org/2000/svg">
<path d="M14.6339 13.1688L11.4607 10.113C12.1164 9.16148 12.5001 8.02213 12.5001 6.79731C12.5001 3.47858 9.69635 0.778564 6.25006 0.778564C2.80378 0.778564 0 3.47858 0 6.79731C0 10.1161 2.80378 12.8161 6.25006 12.8161C7.52195 12.8161 8.70509 12.4465 9.69323 11.8151L12.8664 14.8709C13.3539 15.3409 14.1464 15.3409 14.6339 14.8709C15.122 14.4008 15.122 13.6388 14.6339 13.1688ZM1.87502 6.79731C1.87502 4.47408 3.83754 2.58419 6.25006 2.58419C8.66259 2.58419 10.6251 4.47408 10.6251 6.79731C10.6251 9.12055 8.66259 11.0104 6.25006 11.0104C3.83754 11.0104 1.87502 9.12055 1.87502 6.79731Z" fill="#00A99D"/>
</svg>
