<svg width="43" height="42" viewBox="0 0 43 42" fill="none" xmlns="http://www.w3.org/2000/svg">
<path d="M39.0987 0C37.9693 0 36.3947 0.050375 34.7323 0.203125C31.406 0.5135 27.5661 1.0725 25.1855 3.45312C23.1867 5.45188 19.0527 10.7591 15.2323 15.743C14.4767 16.7261 14.5076 16.7066 13.8105 17.6215L11.0171 17.4688C9.99487 17.4124 8.97387 17.5994 8.03798 18.0144C7.10208 18.4293 6.27801 19.0605 5.63347 19.8559L2.23397 24.0175L0.558594 26.1511L3.19759 26.6581L8.53084 27.7257L14.7757 33.9706L15.8433 39.3039L16.4023 41.9445L18.4823 40.2675L22.6472 36.8664C23.4426 36.2218 24.0738 35.3978 24.4887 34.4619C24.9037 33.526 25.0907 32.505 25.0343 31.4827L24.8816 28.7398C25.8273 28.0248 25.7965 28.041 26.8121 27.2675C31.8073 23.4406 37.1325 19.3326 39.1003 17.3664C41.4615 15.0036 41.9896 11.1069 42.3 7.7675C42.6103 4.42975 42.4527 1.573 42.4527 1.573L42.4007 0.0991248L40.9285 0.0503752C40.9285 0.0503752 40.2281 0 39.0987 0ZM37.6265 3.25C38.2732 3.25 38.7315 3.28738 39.2011 3.30038C39.219 4.24613 39.258 5.23088 39.0483 7.46525C38.7623 10.543 37.8231 13.9718 36.7636 15.0312C35.3173 16.4775 29.8053 20.865 24.8296 24.6805C22.0435 26.8218 19.2506 28.9544 16.4511 31.0781L11.4737 26.1007C12.14 25.207 14.4198 22.0968 17.7706 17.7222C21.5796 12.7595 25.9785 7.22963 27.4702 5.73787C28.5817 4.628 31.9715 3.68875 35.0362 3.40275C35.897 3.31413 36.7612 3.26316 37.6265 3.25ZM30.2116 8.98787C28.3965 8.98787 26.9616 10.4731 26.9616 12.2882C26.9616 14.105 28.3965 15.5903 30.2116 15.5903C31.0864 15.5881 31.9248 15.2398 32.5435 14.6213C33.1623 14.0029 33.511 13.1647 33.5136 12.2899C33.5114 11.4148 33.1629 10.5762 32.5441 9.95738C31.9253 9.3386 31.0867 8.99002 30.2116 8.98787ZM10.814 20.7188L11.4233 20.7691C10.4451 22.0643 8.84609 24.1394 8.62997 24.4254L6.44759 23.9688L8.12134 21.9375C8.44206 21.5362 8.85325 21.2165 9.32126 21.0047C9.78928 20.7929 10.3008 20.6949 10.814 20.7188ZM7.10734 29.1493C5.71634 30.5386 4.92334 32.4626 4.36434 34.073C3.80697 35.6866 3.55184 37.0191 3.55184 37.0191L3.04647 39.4062L5.43359 38.9496C5.43359 38.9496 6.72709 38.727 8.32609 38.1875C9.92672 37.648 11.8507 36.8485 13.3035 35.3941L11.0187 33.1094C10.2956 33.8325 8.86072 34.4679 7.56559 34.9375C8.06122 33.5855 8.78434 32.0499 9.39372 31.434L7.10734 29.1493ZM21.7323 31.0781L21.7827 31.6875C21.8172 32.1968 21.7292 32.7069 21.5259 33.1751C21.3226 33.6433 21.01 34.056 20.6143 34.3785L18.5327 36.0555L18.0761 33.8715C18.3621 33.6603 20.4372 32.0499 21.7323 31.0781Z" fill="#00A99D"/>
</svg>
