<svg width="16" height="16" viewBox="0 0 16 16" fill="none" xmlns="http://www.w3.org/2000/svg">
<path fill-rule="evenodd" clip-rule="evenodd" d="M10.5976 14.826C8.5856 14.826 6.21827 13.758 4.23027 11.7713C1.05827 8.59867 0.230266 4.45734 2.34493 2.34267C2.9696 1.71867 3.7296 1.33867 4.60627 1.21201L5.11293 1.13867L6.9776 5.48667L5.11293 6.41867C5.54493 7.23734 6.1996 8.08334 7.05893 8.94267C7.87827 9.76201 8.7236 10.412 9.57226 10.8733L10.4483 9.15801L14.7703 9.77534L14.7956 10.3267C14.8589 11.6993 14.4656 12.8507 13.6583 13.6573C12.8689 14.4467 11.7963 14.826 10.5976 14.826ZM4.30893 2.64801C3.9256 2.77667 3.58293 2.99067 3.2876 3.28667C1.75427 4.81934 2.61827 8.27334 5.17293 10.8287C7.72893 13.384 11.1823 14.246 12.7156 12.714C13.2263 12.2033 13.4103 11.53 13.4556 10.934L11.2109 10.6133L10.7803 11.476C10.6176 11.8013 10.3369 12.0407 9.9896 12.1493C9.64227 12.2593 9.25693 12.22 8.93427 12.0447C7.97427 11.5227 7.0256 10.796 6.1156 9.886C5.16227 8.93267 4.4296 7.98 3.93693 7.054C3.7656 6.73067 3.73293 6.36134 3.8436 6.01334C3.95427 5.66734 4.1936 5.388 4.51827 5.22534L5.2556 4.85667L4.30893 2.64801Z" fill="#00A99D"/>
</svg>
