<svg width="15" height="13" viewBox="0 0 15 13" fill="none" xmlns="http://www.w3.org/2000/svg">
<path fill-rule="evenodd" clip-rule="evenodd" d="M1.03094 6.02713C5.05765 4.3376 7.74256 3.22366 9.08565 2.6853C12.9217 1.14959 13.7229 0.882893 14.2382 0.872969C14.4293 0.869392 14.6167 0.923625 14.7741 1.02803C14.8845 1.11973 14.9549 1.24821 14.9711 1.38776C14.9989 1.56132 15.0067 1.73729 14.9943 1.91248C14.7869 4.02128 13.8865 9.11838 13.4292 11.474C13.236 12.4664 12.8547 12.8051 12.485 12.8386C11.6838 12.9093 11.0681 12.3275 10.2952 11.8375C9.07921 11.0696 8.39263 10.597 7.2127 9.84281C5.84856 8.97449 6.73351 8.50186 7.51026 7.72533C7.71378 7.52189 11.2459 4.42568 11.3154 4.14533C11.3246 4.10393 11.3235 4.06104 11.3123 4.0201C11.3012 3.97917 11.2801 3.94133 11.251 3.90964C11.2087 3.88419 11.1609 3.86859 11.1112 3.86407C11.0616 3.85954 11.0115 3.86623 10.965 3.88359C10.844 3.90923 8.90231 5.14515 5.14009 7.59136C4.58877 7.95606 4.08941 8.13386 3.64199 8.12476C3.14864 8.1136 2.20056 7.85558 1.49467 7.62857C0.630329 7.35815 -0.051089 7.2155 0.00301269 6.76024C0.0347867 6.52207 0.377428 6.2777 1.03094 6.02713Z" fill="#00A99D"/>
</svg>
