<svg width="14" height="15" viewBox="0 0 14 15" fill="none" xmlns="http://www.w3.org/2000/svg">
<path d="M13.1103 14.1413C13.0349 14.1153 12.9659 14.094 12.957 14.094C12.948 14.0937 12.2678 13.455 11.4453 12.6747L9.94986 11.2558L9.69433 11.4032C7.95217 12.4076 5.68976 12.1196 4.27495 10.7132C3.16305 9.60794 2.77894 7.97577 3.28988 6.52735C3.7976 5.08816 5.11585 4.01838 6.70614 3.75504C7.08211 3.69237 7.79004 3.69237 8.16601 3.75504C10.0012 4.05893 11.425 5.40577 11.744 7.13976C11.8168 7.53506 11.8157 8.20174 11.7417 8.57032C11.6252 9.1502 11.3911 9.7049 11.0781 10.1428L10.9385 10.338L12.378 11.7029C13.1698 12.4536 13.8588 13.1336 13.9092 13.2141C14.0169 13.386 14.0307 13.6546 13.9404 13.82C13.8287 14.0247 13.5431 14.1937 13.316 14.1896C13.2783 14.189 13.1857 14.1671 13.1103 14.1411L13.1103 14.1413ZM7.87886 10.8853C8.33956 10.8439 8.99193 10.5841 9.41584 10.2736C9.95361 9.87967 10.363 9.29813 10.5564 8.65345C10.6504 8.33997 10.6847 7.71018 10.6265 7.36715C10.3736 5.87876 9.01985 4.78166 7.43607 4.78166C5.98024 4.78166 4.69463 5.71866 4.30977 7.06018C4.24114 7.29939 4.23066 7.40983 4.23247 7.87419C4.23434 8.36196 4.24306 8.43788 4.32708 8.69791C4.71805 9.90876 5.81227 10.7806 7.09011 10.8994C7.37912 10.9266 7.43478 10.9255 7.87885 10.8853H7.87886ZM5.61894 9.17669V8.91619H7.74585H9.87276L9.83206 8.9895C9.80968 9.02971 9.73142 9.14701 9.65815 9.25L9.52494 9.43719H7.57194H5.61894V9.17669H5.61894ZM5.61894 7.93935V7.67885H7.86465H10.1104V7.83754C10.1104 7.92504 10.1008 8.0421 10.0889 8.09804L10.0675 8.19973H7.84322H5.61894V7.93923L5.61894 7.93935ZM5.61894 6.76704V6.50666H7.65614H9.69333L9.76235 6.61308C9.80031 6.67102 9.86273 6.78856 9.90107 6.87346L9.97077 7.02801H7.79485H5.61894V6.76751L5.61894 6.76704ZM0.90467 13.4731C0.501877 13.3485 0.19033 13.0474 0.0640305 12.6607C-0.00432503 12.4514 -0.00498486 12.3851 0.00407941 6.70023L0.013293 0.951505L0.142631 0.702948C0.334726 0.333898 0.634874 0.110055 1.05116 0.025508C1.15619 0.00422339 2.4812 -0.00405393 4.81328 0.00185846C8.27623 0.0136832 8.41914 0.0136831 8.56755 0.072807C8.6524 0.107099 8.78618 0.176865 8.86483 0.227357C9.07738 0.363933 11.0712 2.34683 11.1847 2.5346C11.3615 2.82679 11.3781 2.95237 11.3786 3.99733L11.379 4.95632L11.079 4.65112L10.779 4.34604L10.7618 3.93359C10.7457 3.54574 10.7388 3.5131 10.6466 3.38681C10.4704 3.14547 10.3664 3.11993 9.55957 3.11958C8.8912 3.11934 8.85079 3.11958 8.68118 3.04035C8.55818 2.98596 8.47365 2.91915 8.4069 2.82336L8.3104 2.68502L8.29325 1.83588C8.27421 0.892263 8.26325 0.843427 8.04147 0.713236C7.92541 0.644652 7.91774 0.644652 4.55208 0.645835C1.35243 0.646426 1.17194 0.645835 1.04185 0.706141C0.878728 0.77709 0.805627 0.849812 0.73459 1.01134C0.687824 1.11776 0.681847 1.76895 0.681847 6.76645C0.681847 11.7639 0.687824 12.4151 0.73459 12.5214C0.805622 12.683 0.878728 12.7556 1.04185 12.8268C1.17273 12.8835 1.38566 12.8871 5.70469 12.8871C10.1274 12.8871 10.2335 12.8859 10.3675 12.8232C10.443 12.7877 10.5315 12.7416 10.5642 12.718C10.616 12.6825 10.6528 12.7038 10.8491 12.8881L11.0746 13.0993L10.9172 13.2358C10.8306 13.3103 10.6715 13.4061 10.5637 13.4474L10.3675 13.5231L5.73898 13.5349C1.23005 13.5349 1.10511 13.5349 0.90471 13.4782L0.90467 13.4731Z" fill="white"/>
</svg>
