<svg width="26" height="25" viewBox="0 0 26 25" fill="none" xmlns="http://www.w3.org/2000/svg">
<path d="M24.0116 15.8697C23.183 15.1417 22.1782 14.5126 21.0248 14.0001C20.5318 13.7812 19.9548 14.0032 19.7359 14.496C19.5169 14.9889 19.7389 15.5659 20.2318 15.785C21.2043 16.2172 22.0424 16.7393 22.7224 17.3368C23.5607 18.0735 24.0415 19.1401 24.0415 20.2637V22.0703C24.0415 22.6088 23.6034 23.0469 23.0649 23.0469H3.92432C3.38587 23.0469 2.94775 22.6088 2.94775 22.0703V20.2637C2.94775 19.1401 3.4286 18.0735 4.26688 17.3368C5.25355 16.4698 8.1283 14.4531 13.4946 14.4531C17.4793 14.4531 20.7212 11.2112 20.7212 7.22656C20.7212 3.24192 17.4793 0 13.4946 0C9.50999 0 6.26807 3.24192 6.26807 7.22656C6.26807 9.55601 7.37624 11.6312 9.09285 12.9536C5.95183 13.644 3.99794 14.9731 2.9777 15.8697C1.71751 16.9769 0.994629 18.5783 0.994629 20.2637V22.0703C0.994629 23.6858 2.30879 25 3.92432 25H23.0649C24.6805 25 25.9946 23.6858 25.9946 22.0703V20.2637C25.9946 18.5783 25.2717 16.9769 24.0116 15.8697ZM8.22119 7.22656C8.22119 4.31881 10.5869 1.95312 13.4946 1.95312C16.4024 1.95312 18.7681 4.31881 18.7681 7.22656C18.7681 10.1343 16.4024 12.5 13.4946 12.5C10.5869 12.5 8.22119 10.1343 8.22119 7.22656Z" fill="#753E31"/>
</svg>
