<svg width="26" height="25" viewBox="0 0 26 25" fill="none" xmlns="http://www.w3.org/2000/svg">
<path d="M25.7758 5.68281C25.5904 5.45469 25.3121 5.32227 25.0181 5.32227H7.32939L7.25693 4.65664L7.25435 4.63525C6.90767 1.99277 4.63638 0 1.97119 0C1.43184 0 0.994629 0.437207 0.994629 0.976562C0.994629 1.51592 1.43184 1.95312 1.97119 1.95312C3.65605 1.95312 5.09243 3.2104 5.3165 4.8793L6.47729 15.5434C5.46216 16.0042 4.75439 17.0274 4.75439 18.2129C4.75439 18.221 4.75449 18.2292 4.75469 18.2373C4.75449 18.2454 4.75439 18.2536 4.75439 18.2617C4.75439 19.8771 6.06865 21.1914 7.68408 21.1914H8.08145C7.98213 21.4826 7.92822 21.7947 7.92822 22.1191C7.92822 23.7076 9.22056 25 10.8091 25C12.3976 25 13.6899 23.7076 13.6899 22.1191C13.6899 21.7947 13.636 21.4826 13.5367 21.1914H17.7495C17.6501 21.4826 17.5962 21.7947 17.5962 22.1191C17.5962 23.7076 18.8886 25 20.4771 25C22.0656 25 23.358 23.7076 23.358 22.1191C23.358 20.5307 22.0656 19.2383 20.4771 19.2383H7.68408C7.14561 19.2383 6.70752 18.8002 6.70752 18.2617C6.70752 18.2536 6.70742 18.2454 6.70723 18.2373C6.70742 18.2292 6.70752 18.221 6.70752 18.2129C6.70752 17.6744 7.14561 17.2363 7.68408 17.2363H20.1514C21.885 17.2363 23.4758 16.1638 24.2044 14.5038C24.4212 14.01 24.1966 13.4339 23.7027 13.2171C23.2089 13.0003 22.6328 13.225 22.416 13.7188C22.0053 14.6545 21.0953 15.2832 20.1514 15.2832H8.41362L7.54199 7.27539H23.8168L23.339 9.56621C23.2289 10.0942 23.5676 10.6115 24.0956 10.7216C24.1628 10.7356 24.2298 10.7424 24.2959 10.7424C24.7487 10.7424 25.1548 10.4258 25.2509 9.96504L25.974 6.49824C26.0341 6.21045 25.9613 5.91094 25.7758 5.68281ZM20.4771 21.1914C20.9886 21.1914 21.4048 21.6076 21.4048 22.1191C21.4048 22.6307 20.9886 23.0469 20.4771 23.0469C19.9655 23.0469 19.5493 22.6307 19.5493 22.1191C19.5493 21.6076 19.9655 21.1914 20.4771 21.1914ZM10.8091 21.1914C11.3207 21.1914 11.7368 21.6076 11.7368 22.1191C11.7368 22.6307 11.3207 23.0469 10.8091 23.0469C10.2975 23.0469 9.88135 22.6307 9.88135 22.1191C9.88135 21.6076 10.2975 21.1914 10.8091 21.1914Z" fill="#FF4C25"/>
</svg>
