<svg width="20" height="21" viewBox="0 0 20 21" fill="none" xmlns="http://www.w3.org/2000/svg">
<g clip-path="url(#clip0)">
<path d="M14.0419 0.115067H5.95811C2.67279 0.115067 0 2.78786 0 6.07317V14.157C0 17.4423 2.67279 20.1151 5.95811 20.1151H14.0419C17.3272 20.1151 20 17.4423 20 14.157V6.07317C20 2.78786 17.3272 0.115067 14.0419 0.115067ZM17.988 14.157C17.988 16.3363 16.2213 18.1031 14.0419 18.1031H5.95811C3.77875 18.1031 2.012 16.3363 2.012 14.157V6.07317C2.012 3.89378 3.77875 2.12707 5.95811 2.12707H14.0419C16.2213 2.12707 17.988 3.89378 17.988 6.07317V14.157Z" fill="#753E31"/>
<path d="M9.99998 4.94237C7.14775 4.94237 4.82727 7.26284 4.82727 10.115C4.82727 12.9672 7.14775 15.2878 9.99998 15.2878C12.8522 15.2878 15.1727 12.9673 15.1727 10.115C15.1727 7.26281 12.8522 4.94237 9.99998 4.94237ZM9.99998 13.2758C8.25436 13.2758 6.83927 11.8607 6.83927 10.1151C6.83927 8.36945 8.25439 6.95437 9.99998 6.95437C11.7456 6.95437 13.1607 8.36945 13.1607 10.1151C13.1607 11.8607 11.7456 13.2758 9.99998 13.2758Z" fill="#753E31"/>
<path d="M15.1828 6.22067C15.8673 6.22067 16.4223 5.66573 16.4223 4.98118C16.4223 4.29663 15.8673 3.74169 15.1828 3.74169C14.4982 3.74169 13.9433 4.29663 13.9433 4.98118C13.9433 5.66573 14.4982 6.22067 15.1828 6.22067Z" fill="#753E31"/>
</g>
<defs>
<clipPath id="clip0">
<rect width="20" height="20" fill="white" transform="translate(0 0.115067)"/>
</clipPath>
</defs>
</svg>
