<svg width="21" height="28" viewBox="0 0 21 28" fill="none" xmlns="http://www.w3.org/2000/svg">
<circle cx="10.5" cy="13.5002" r="10" stroke="#F7DE87"/>
<path d="M9.76 16.6402C9.76 16.2029 9.82933 15.8189 9.968 15.4882C10.1173 15.1576 10.2987 14.8749 10.512 14.6402C10.7253 14.4056 11.0027 14.1389 11.344 13.8402C11.8027 13.4349 12.1387 13.0829 12.352 12.7842C12.576 12.4749 12.688 12.1016 12.688 11.6642C12.688 11.0776 12.4587 10.6082 12 10.2562C11.5413 9.89358 10.912 9.71224 10.112 9.71224C8.78933 9.71224 7.77067 10.1442 7.056 11.0082L6.208 10.3682C7.11467 9.25891 8.44267 8.70424 10.192 8.70424C11.312 8.70424 12.2027 8.95491 12.864 9.45624C13.536 9.95758 13.872 10.6349 13.872 11.4882C13.872 11.9256 13.7973 12.3149 13.648 12.6562C13.5093 12.9869 13.3333 13.2696 13.12 13.5042C12.9173 13.7389 12.6453 14.0109 12.304 14.3202C11.8453 14.7362 11.504 15.1096 11.28 15.4402C11.056 15.7602 10.944 16.1602 10.944 16.6402H9.76ZM10.352 20.0802C10.1173 20.0802 9.92 20.0002 9.76 19.8402C9.6 19.6696 9.52 19.4722 9.52 19.2482C9.52 19.0136 9.6 18.8216 9.76 18.6722C9.92 18.5122 10.1173 18.4322 10.352 18.4322C10.5973 18.4322 10.8 18.5122 10.96 18.6722C11.12 18.8216 11.2 19.0136 11.2 19.2482C11.2 19.4722 11.1147 19.6696 10.944 19.8402C10.784 20.0002 10.5867 20.0802 10.352 20.0802Z" fill="#F7DE87"/>
</svg>
