<svg width="18" height="18" viewBox="0 0 18 18" fill="none" xmlns="http://www.w3.org/2000/svg">
<g clip-path="url(#clip0_1_2953)">
<path d="M9.00302 4.37854C6.45077 4.37854 4.38452 6.44704 4.38452 8.99704C4.38452 11.5493 6.45302 13.6155 9.00302 13.6155C11.5553 13.6155 13.6215 11.547 13.6215 8.99704C13.6215 6.44479 11.553 4.37854 9.00302 4.37854ZM9.00302 11.9948C7.34627 11.9948 6.00527 10.653 6.00527 8.99704C6.00527 7.34104 7.34702 5.99929 9.00302 5.99929C10.659 5.99929 12.0008 7.34104 12.0008 8.99704C12.0015 10.653 10.6598 11.9948 9.00302 11.9948Z" fill="white"/>
<path d="M12.711 0.0571503C11.055 -0.0200997 6.95321 -0.0163497 5.29571 0.0571503C3.83921 0.1254 2.55446 0.47715 1.51871 1.5129C-0.212293 3.2439 0.00895682 5.5764 0.00895682 8.99715C0.00895682 12.4982 -0.186043 14.7767 1.51871 16.4814C3.25646 18.2184 5.62271 17.9911 9.00296 17.9911C12.471 17.9911 13.668 17.9934 14.8942 17.5187C16.5615 16.8714 17.82 15.3811 17.943 12.7044C18.021 11.0476 18.0165 6.94665 17.943 5.28915C17.7945 2.1294 16.0987 0.21315 12.711 0.0571503ZM15.3322 15.3361C14.1975 16.4709 12.6232 16.3696 8.98121 16.3696C5.23121 16.3696 3.72746 16.4251 2.63021 15.3249C1.36646 14.0672 1.59521 12.0474 1.59521 8.98515C1.59521 4.8414 1.16996 1.85715 5.32871 1.64415C6.28421 1.6104 6.56546 1.59915 8.97071 1.59915L9.00446 1.62165C13.0012 1.62165 16.137 1.20315 16.3252 5.36115C16.368 6.3099 16.3777 6.5949 16.3777 8.9964C16.377 12.7029 16.4475 14.2156 15.3322 15.3361Z" fill="white"/>
<path d="M13.8045 5.27544C14.4006 5.27544 14.8838 4.79224 14.8838 4.19619C14.8838 3.60014 14.4006 3.11694 13.8045 3.11694C13.2084 3.11694 12.7253 3.60014 12.7253 4.19619C12.7253 4.79224 13.2084 5.27544 13.8045 5.27544Z" fill="white"/>
</g>
<defs>
<clipPath id="clip0_1_2953">
<rect width="18" height="18" fill="white"/>
</clipPath>
</defs>
</svg>
