<svg width="160" height="33" viewBox="0 0 160 33" fill="none" xmlns="http://www.w3.org/2000/svg">
<path d="M45.8537 24.2549C45.3043 24.2549 44.6318 24.1889 43.8362 24.0569L44.0919 21.2567C44.395 21.3321 44.7266 21.3698 45.0865 21.3698C45.4843 21.3698 45.8064 21.3132 46.0526 21.2001C46.3178 21.0869 46.5831 20.8041 46.8483 20.3515C47.1324 19.8801 47.3503 19.2201 47.5018 18.3715C47.6534 17.5229 47.7765 16.3349 47.8712 14.8075C47.966 13.2612 48.0133 11.3755 48.0133 9.15038H59.3513V24.0852H55.9129V12.0921H51.2243C51.2243 14.2229 51.1391 16.0332 50.9686 17.5229C50.7981 19.0127 50.5708 20.1912 50.2866 21.0587C50.0214 21.9261 49.6425 22.6049 49.15 23.0952C48.6764 23.5667 48.1933 23.8778 47.7008 24.0287C47.2082 24.1795 46.5925 24.2549 45.8537 24.2549Z" fill="white"/>
<path d="M70.8042 24.4247C68.5309 24.4247 66.6365 23.6704 65.121 22.1618C63.6055 20.6532 62.8477 18.8147 62.8477 16.6461C62.8477 14.4775 63.615 12.6389 65.1494 11.1304C66.6839 9.60295 68.5877 8.83923 70.861 8.83923C73.1343 8.83923 75.0287 9.59352 76.5442 11.1021C78.0786 12.6107 78.8459 14.4587 78.8459 16.6461C78.8459 18.7958 78.0786 20.6344 76.5442 22.1618C75.0097 23.6704 73.0964 24.4247 70.8042 24.4247ZM70.861 21.4547C72.225 21.4547 73.3237 20.9927 74.1572 20.0687C74.9908 19.1447 75.4075 18.0038 75.4075 16.6461C75.4075 15.3072 74.9718 14.1758 74.1004 13.2518C73.229 12.3089 72.1303 11.8375 70.8042 11.8375C69.4592 11.8375 68.3699 12.2995 67.5364 13.2235C66.7028 14.1475 66.2861 15.2884 66.2861 16.6461C66.2861 17.9661 66.7218 19.0975 67.5932 20.0404C68.4646 20.9832 69.5539 21.4547 70.861 21.4547Z" fill="white"/>
<path d="M82.3475 24.0852V9.15038H92.975V12.0921H85.7858V24.0852H82.3475Z" fill="white"/>
<path d="M102.828 24.4247C100.554 24.4247 98.6599 23.6704 97.1443 22.1618C95.6288 20.6532 94.8711 18.8147 94.8711 16.6461C94.8711 14.4775 95.6383 12.6389 97.1728 11.1304C98.7072 9.60295 100.611 8.83923 102.884 8.83923C105.158 8.83923 107.052 9.59352 108.568 11.1021C110.102 12.6107 110.869 14.4587 110.869 16.6461C110.869 18.7958 110.102 20.6344 108.568 22.1618C107.033 23.6704 105.12 24.4247 102.828 24.4247ZM102.884 21.4547C104.248 21.4547 105.347 20.9927 106.181 20.0687C107.014 19.1447 107.431 18.0038 107.431 16.6461C107.431 15.3072 106.995 14.1758 106.124 13.2518C105.252 12.3089 104.154 11.8375 102.828 11.8375C101.483 11.8375 100.393 12.2995 99.5597 13.2235C98.7262 14.1475 98.3094 15.2884 98.3094 16.6461C98.3094 17.9661 98.7451 19.0975 99.6165 20.0404C100.488 20.9832 101.577 21.4547 102.884 21.4547Z" fill="white"/>
<path d="M117.582 24.0852V12.0921H112.751V9.15038H125.879V12.0921H121.049V24.0852H117.582Z" fill="white"/>
<path d="M128.606 24.0852V9.15038H131.96V19.1635C135.104 14.7132 137.472 11.3755 139.064 9.15038H142.303V24.0852H138.978V14.1287L131.846 24.0852H128.606Z" fill="white"/>
<path d="M146.616 24.0852V9.15038H160V24.0852H156.562V12.0921H150.054V24.0852H146.616Z" fill="white"/>
<path fill-rule="evenodd" clip-rule="evenodd" d="M33.1518 0H0V33H33.1518V0ZM15.3872 12.4363V24.8679H18.0299V12.4363H22.7611V10.0179H10.6559V12.4363H15.3872Z" fill="white"/>
</svg>
