<svg width="160" height="34" viewBox="0 0 160 34" fill="none" xmlns="http://www.w3.org/2000/svg">
<path d="M45.8537 24.3666C45.3043 24.3666 44.6318 24.3003 43.8362 24.1677L44.0919 21.3545C44.395 21.4303 44.7266 21.4682 45.0865 21.4682C45.4843 21.4682 45.8064 21.4113 46.0526 21.2977C46.3178 21.184 46.5831 20.8999 46.8483 20.4452C47.1324 19.9716 47.3503 19.3086 47.5018 18.4561C47.6534 17.6036 47.7765 16.4102 47.8712 14.8757C47.966 13.3223 48.0133 11.4279 48.0133 9.19253H59.3513V24.1961H55.9129V12.1478H51.2243C51.2243 14.2884 51.1391 16.1071 50.9686 17.6036C50.7981 19.1002 50.5708 20.2842 50.2866 21.1556C50.0214 22.027 49.6425 22.709 49.15 23.2015C48.6764 23.6751 48.1933 23.9877 47.7008 24.1393C47.2082 24.2908 46.5925 24.3666 45.8537 24.3666Z" fill="#222222"/>
<path d="M70.8042 24.5371C68.5309 24.5371 66.6365 23.7793 65.121 22.2638C63.6055 20.7483 62.8477 18.9013 62.8477 16.7227C62.8477 14.5442 63.615 12.6972 65.1494 11.1816C66.6839 9.64718 68.5877 8.87996 70.861 8.87996C73.1343 8.87996 75.0287 9.63771 76.5442 11.1532C78.0786 12.6687 78.8459 14.5252 78.8459 16.7227C78.8459 18.8823 78.0786 20.7294 76.5442 22.2638C75.0097 23.7793 73.0964 24.5371 70.8042 24.5371ZM70.861 21.5534C72.225 21.5534 73.3237 21.0893 74.1572 20.1611C74.9908 19.2328 75.4075 18.0867 75.4075 16.7227C75.4075 15.3777 74.9718 14.2411 74.1004 13.3128C73.229 12.3656 72.1303 11.892 70.8042 11.892C69.4592 11.892 68.3699 12.3562 67.5364 13.2844C66.7028 14.2127 66.2861 15.3588 66.2861 16.7227C66.2861 18.0488 66.7218 19.1854 67.5932 20.1326C68.4646 21.0798 69.5539 21.5534 70.861 21.5534Z" fill="#222222"/>
<path d="M82.3475 24.1961V9.19253H92.975V12.1478H85.7858V24.1961H82.3475Z" fill="#222222"/>
<path d="M102.828 24.5371C100.554 24.5371 98.6599 23.7793 97.1443 22.2638C95.6288 20.7483 94.8711 18.9013 94.8711 16.7227C94.8711 14.5442 95.6383 12.6972 97.1728 11.1816C98.7072 9.64718 100.611 8.87996 102.884 8.87996C105.158 8.87996 107.052 9.63771 108.568 11.1532C110.102 12.6687 110.869 14.5252 110.869 16.7227C110.869 18.8823 110.102 20.7294 108.568 22.2638C107.033 23.7793 105.12 24.5371 102.828 24.5371ZM102.884 21.5534C104.248 21.5534 105.347 21.0893 106.181 20.1611C107.014 19.2328 107.431 18.0867 107.431 16.7227C107.431 15.3777 106.995 14.2411 106.124 13.3128C105.252 12.3656 104.154 11.892 102.828 11.892C101.483 11.892 100.393 12.3562 99.5597 13.2844C98.7262 14.2127 98.3094 15.3588 98.3094 16.7227C98.3094 18.0488 98.7451 19.1854 99.6165 20.1326C100.488 21.0798 101.577 21.5534 102.884 21.5534Z" fill="#222222"/>
<path d="M117.582 24.1961V12.1478H112.751V9.19253H125.879V12.1478H121.049V24.1961H117.582Z" fill="#222222"/>
<path d="M128.606 24.1961V9.19253H131.96V19.2517C135.104 14.781 137.472 11.4279 139.064 9.19253H142.303V24.1961H138.978V14.1937L131.846 24.1961H128.606Z" fill="#222222"/>
<path d="M146.616 24.1961V9.19253H160V24.1961H156.562V12.1478H150.054V24.1961H146.616Z" fill="#222222"/>
<path fill-rule="evenodd" clip-rule="evenodd" d="M33.1518 0H0V33.1518H33.1518V0ZM15.3872 12.4935V24.9823H18.0299V12.4935H22.7611V10.0639H10.6559V12.4935H15.3872Z" fill="#0066FF"/>
</svg>
