<svg width="17" height="16" viewBox="0 0 17 16" fill="none" xmlns="http://www.w3.org/2000/svg">
<path d="M14.687 12.4906C14.3501 11.6927 13.8613 10.968 13.2477 10.3567C12.636 9.74368 11.9113 9.25492 11.1138 8.91741C11.1066 8.91384 11.0995 8.91206 11.0923 8.90848C12.2048 8.10491 12.9281 6.79598 12.9281 5.3192C12.9281 2.87277 10.9459 0.890625 8.49949 0.890625C6.05306 0.890625 4.07091 2.87277 4.07091 5.3192C4.07091 6.79598 4.79413 8.10491 5.90663 8.91027C5.89949 8.91384 5.89234 8.91563 5.8852 8.9192C5.0852 9.2567 4.36734 9.74063 3.75127 10.3585C3.13825 10.9702 2.64949 11.6949 2.31199 12.4924C1.98042 13.2732 1.8016 14.1104 1.7852 14.9585C1.78472 14.9775 1.78807 14.9965 1.79503 15.0143C1.802 15.032 1.81245 15.0482 1.82576 15.0618C1.83907 15.0755 1.85498 15.0863 1.87255 15.0937C1.89012 15.1011 1.90899 15.1049 1.92806 15.1049H2.99949C3.07806 15.1049 3.14056 15.0424 3.14234 14.9656C3.17806 13.5871 3.73163 12.296 4.7102 11.3174C5.7227 10.3049 7.06734 9.74777 8.49949 9.74777C9.93163 9.74777 11.2763 10.3049 12.2888 11.3174C13.2673 12.296 13.8209 13.5871 13.8566 14.9656C13.8584 15.0442 13.9209 15.1049 13.9995 15.1049H15.0709C15.09 15.1049 15.1089 15.1011 15.1264 15.0937C15.144 15.0863 15.1599 15.0755 15.1732 15.0618C15.1865 15.0482 15.197 15.032 15.2039 15.0143C15.2109 14.9965 15.2142 14.9775 15.2138 14.9585C15.1959 14.1049 15.0191 13.2746 14.687 12.4906ZM8.49949 8.39063C7.67984 8.39063 6.90841 8.07098 6.32806 7.49063C5.7477 6.91027 5.42806 6.13884 5.42806 5.3192C5.42806 4.49955 5.7477 3.72813 6.32806 3.14777C6.90841 2.56741 7.67984 2.24777 8.49949 2.24777C9.31913 2.24777 10.0906 2.56741 10.6709 3.14777C11.2513 3.72813 11.5709 4.49955 11.5709 5.3192C11.5709 6.13884 11.2513 6.91027 10.6709 7.49063C10.0906 8.07098 9.31913 8.39063 8.49949 8.39063Z" fill="#81B7E4"/>
</svg>
